<svg id="svg" version="1.1" xmlns="http://www.w3.org/2000/svg" xmlns:xlink="http://www.w3.org/1999/xlink" width="400" height="153.72945638432364" viewBox="0, 0, 400,153.72945638432364"><g id="svgg"><path id="path0" d="M110.050 1.375 C 110.791 8.463,113.882 16.078,118.456 22.084 C 123.898 29.230,131.812 35.199,140.000 38.332 C 140.779 38.631,141.532 38.931,141.672 38.999 C 141.813 39.068,142.188 39.180,142.505 39.248 C 142.823 39.316,143.158 39.427,143.250 39.495 C 143.627 39.773,148.106 40.857,150.583 41.269 C 154.936 41.994,162.036 42.030,166.167 41.350 C 169.318 40.830,173.912 39.543,176.167 38.549 C 179.565 37.049,183.265 34.915,185.417 33.214 C 190.389 29.282,193.570 25.363,196.254 19.864 C 197.695 16.910,198.476 14.440,199.334 10.123 C 199.615 8.711,199.820 4.670,199.711 2.707 L 199.616 0.997 192.140 1.040 L 184.663 1.083 184.599 3.167 C 184.514 5.911,183.930 9.653,183.494 10.250 C 183.427 10.342,183.316 10.677,183.248 10.995 C 183.180 11.312,183.063 11.687,182.989 11.828 C 182.914 11.968,182.556 12.724,182.192 13.506 C 180.708 16.700,177.158 20.933,174.509 22.667 C 174.299 22.804,173.818 23.137,173.440 23.406 C 171.846 24.538,168.328 26.122,165.667 26.904 C 164.791 27.161,164.352 27.258,162.083 27.695 C 160.772 27.947,153.732 27.948,152.417 27.696 C 149.464 27.129,147.019 26.496,145.917 26.013 C 145.733 25.933,144.913 25.588,144.094 25.248 C 141.450 24.149,139.569 23.046,136.750 20.939 C 130.726 16.437,125.949 8.488,125.259 1.818 L 125.146 0.719 121.129 0.610 C 118.920 0.549,115.503 0.500,113.536 0.500 L 109.959 0.500 110.050 1.375 M0.451 72.271 C 0.226 72.496,0.316 92.779,0.543 92.962 C 0.657 93.054,1.725 93.170,2.917 93.218 C 6.189 93.352,10.640 94.081,13.363 94.928 C 29.781 100.036,42.341 112.102,48.831 129.000 C 49.130 129.779,49.431 130.532,49.499 130.672 C 49.568 130.813,49.681 131.185,49.750 131.500 C 49.819 131.815,49.937 132.187,50.012 132.328 C 50.292 132.851,51.270 136.471,51.770 138.833 C 52.531 142.427,52.994 146.179,53.140 149.917 L 53.250 152.750 62.485 152.793 L 71.720 152.836 71.608 149.134 C 71.480 144.875,70.991 140.227,70.331 137.000 C 70.247 136.587,70.132 135.950,70.077 135.583 C 69.868 134.196,69.036 130.718,68.223 127.833 C 67.488 125.225,65.739 120.281,64.804 118.167 C 64.703 117.938,64.526 117.525,64.411 117.250 C 62.526 112.748,57.473 103.955,55.217 101.250 C 55.141 101.158,54.445 100.258,53.671 99.250 C 52.897 98.242,51.998 97.121,51.674 96.760 C 49.755 94.625,47.264 91.983,46.778 91.567 C 46.467 91.301,45.622 90.528,44.898 89.849 C 44.175 89.170,43.058 88.199,42.417 87.691 C 41.775 87.183,41.212 86.723,41.167 86.669 C 41.012 86.486,39.016 85.014,38.365 84.603 C 38.010 84.379,37.614 84.092,37.485 83.966 C 37.356 83.839,36.762 83.443,36.167 83.087 C 35.571 82.730,34.858 82.283,34.583 82.094 C 33.971 81.672,33.632 81.468,32.667 80.943 C 32.254 80.719,31.429 80.264,30.833 79.931 C 30.238 79.599,29.188 79.065,28.500 78.744 C 27.813 78.423,27.114 78.084,26.949 77.990 C 26.018 77.461,20.309 75.360,17.917 74.666 C 16.394 74.224,13.471 73.552,11.750 73.248 C 8.019 72.590,0.760 71.962,0.451 72.271 " stroke="none" fill="#6b6f77" fill-rule="evenodd"></path><path id="path1" d="M0.000 76.833 L 0.000 152.833 26.500 152.833 L 53.000 152.833 52.996 151.542 C 52.990 149.517,52.509 144.176,52.174 142.417 C 52.087 141.958,51.896 140.946,51.750 140.167 C 51.265 137.583,50.188 133.380,49.824 132.646 C 49.750 132.496,49.638 132.102,49.576 131.769 C 49.513 131.436,49.402 131.126,49.329 131.081 C 49.256 131.035,49.145 130.699,49.083 130.332 C 49.021 129.966,48.908 129.667,48.832 129.667 C 48.756 129.667,48.643 129.437,48.581 129.155 C 48.519 128.874,48.364 128.443,48.235 128.197 C 48.107 127.951,48.002 127.619,48.001 127.458 C 48.000 127.298,47.925 127.167,47.833 127.167 C 47.742 127.167,47.667 127.088,47.667 126.991 C 47.667 126.606,45.942 123.021,44.878 121.195 C 44.487 120.522,44.167 119.935,44.167 119.890 C 44.167 119.815,42.262 116.814,41.963 116.417 C 41.894 116.325,41.254 115.462,40.540 114.500 C 39.040 112.476,38.899 112.305,36.979 110.177 C 35.412 108.440,33.593 106.664,32.184 105.496 C 31.689 105.086,31.014 104.507,30.684 104.209 C 30.353 103.912,30.039 103.668,29.984 103.667 C 29.929 103.667,29.704 103.518,29.484 103.336 C 28.809 102.780,28.769 102.751,28.125 102.356 C 27.781 102.145,27.500 101.904,27.500 101.820 C 27.500 101.736,27.419 101.667,27.321 101.667 C 27.222 101.667,26.641 101.344,26.029 100.949 C 25.417 100.554,24.804 100.178,24.667 100.113 C 24.529 100.049,24.042 99.774,23.583 99.502 C 22.465 98.841,19.786 97.544,18.250 96.921 C 17.883 96.772,17.453 96.579,17.294 96.492 C 17.135 96.405,16.921 96.333,16.819 96.333 C 16.717 96.333,16.397 96.231,16.109 96.107 C 15.358 95.783,13.298 95.161,12.986 95.164 C 12.841 95.166,12.667 95.112,12.600 95.044 C 12.472 94.917,11.504 94.686,9.250 94.245 C 7.436 93.891,4.307 93.521,2.042 93.393 L 0.167 93.287 0.167 82.617 L 0.167 71.947 3.470 72.050 C 5.287 72.106,7.106 72.229,7.512 72.323 C 7.918 72.417,8.850 72.566,9.583 72.655 C 11.594 72.899,13.211 73.172,13.583 73.331 C 13.767 73.410,14.254 73.520,14.667 73.577 C 15.079 73.634,15.642 73.749,15.917 73.834 C 16.192 73.920,16.867 74.113,17.417 74.264 C 21.248 75.318,25.321 76.897,29.250 78.854 C 32.058 80.252,32.292 80.380,34.417 81.688 C 35.150 82.140,35.900 82.601,36.083 82.713 C 36.266 82.825,36.689 83.123,37.023 83.375 C 37.358 83.627,37.680 83.833,37.739 83.833 C 37.799 83.833,37.938 83.910,38.049 84.003 C 38.159 84.097,39.075 84.785,40.083 85.532 C 41.092 86.280,41.954 86.935,42.000 86.988 C 42.093 87.095,43.811 88.552,44.582 89.178 C 46.356 90.619,50.966 95.493,53.639 98.755 C 54.825 100.201,55.167 100.663,55.167 100.820 C 55.167 100.919,55.223 101.001,55.292 101.001 C 55.360 101.002,55.603 101.283,55.832 101.626 C 56.060 101.969,56.287 102.287,56.336 102.333 C 56.568 102.551,58.167 105.030,58.167 105.172 C 58.167 105.261,58.242 105.333,58.333 105.333 C 58.425 105.333,58.500 105.403,58.500 105.488 C 58.500 105.573,58.788 106.080,59.139 106.613 C 59.491 107.147,60.065 108.108,60.414 108.750 C 60.764 109.392,61.214 110.179,61.415 110.500 C 61.726 110.996,63.731 115.061,64.169 116.083 C 64.248 116.267,64.542 116.928,64.823 117.553 C 65.104 118.178,65.333 118.726,65.333 118.771 C 65.333 118.815,65.473 119.166,65.644 119.551 C 66.300 121.028,67.963 125.879,68.569 128.083 C 68.720 128.633,68.916 129.312,69.004 129.592 C 69.092 129.872,69.237 130.434,69.327 130.842 C 69.416 131.250,69.609 132.108,69.756 132.750 C 71.044 138.369,71.602 142.925,71.934 150.542 L 72.034 152.833 236.017 152.833 L 400.000 152.833 400.000 76.833 L 400.000 0.833 299.955 0.833 L 199.911 0.833 200.031 2.375 C 200.241 5.081,199.773 10.186,199.075 12.793 C 198.450 15.123,197.990 16.627,197.658 17.417 C 196.104 21.119,194.890 23.296,192.819 26.096 C 191.645 27.683,187.681 31.832,186.531 32.677 C 186.227 32.901,185.740 33.288,185.448 33.539 C 185.156 33.790,184.866 33.996,184.804 33.997 C 184.741 33.999,184.589 34.094,184.466 34.208 C 183.122 35.454,177.897 38.261,175.083 39.248 C 174.625 39.409,174.014 39.644,173.725 39.770 C 173.436 39.897,173.047 40.000,172.860 40.000 C 172.673 40.000,172.477 40.068,172.426 40.152 C 172.374 40.236,172.013 40.357,171.624 40.421 C 171.235 40.485,170.842 40.595,170.750 40.665 C 170.443 40.900,166.399 41.643,164.333 41.844 C 163.462 41.928,162.037 42.074,161.167 42.167 C 159.184 42.379,158.167 42.380,156.167 42.171 C 155.296 42.080,153.833 41.932,152.917 41.843 C 150.820 41.638,146.832 40.931,146.353 40.680 C 146.205 40.602,145.749 40.483,145.340 40.415 C 144.931 40.348,144.481 40.236,144.340 40.168 C 144.199 40.100,143.333 39.802,142.417 39.508 C 141.500 39.213,140.525 38.875,140.250 38.757 C 139.975 38.639,139.150 38.291,138.417 37.985 C 137.683 37.678,137.058 37.369,137.028 37.297 C 136.997 37.225,136.887 37.167,136.782 37.167 C 136.582 37.167,134.142 35.994,134.000 35.829 C 133.954 35.775,133.579 35.559,133.167 35.348 C 132.754 35.137,132.094 34.747,131.700 34.482 C 131.306 34.217,130.918 34.000,130.839 34.000 C 130.759 34.000,130.669 33.944,130.639 33.875 C 130.608 33.806,129.983 33.342,129.250 32.843 C 128.517 32.344,127.879 31.892,127.833 31.839 C 127.787 31.785,127.412 31.484,127.000 31.170 C 124.639 29.371,121.207 26.016,119.411 23.750 C 119.047 23.292,118.706 22.879,118.652 22.833 C 118.537 22.736,116.829 20.286,116.583 19.868 C 116.492 19.711,116.375 19.546,116.323 19.500 C 116.128 19.326,115.000 17.365,115.000 17.200 C 115.000 17.105,114.940 17.003,114.866 16.972 C 114.724 16.913,112.671 12.807,112.661 12.562 C 112.658 12.482,112.510 12.117,112.333 11.750 C 112.156 11.383,112.009 10.967,112.006 10.825 C 112.003 10.683,111.938 10.495,111.862 10.408 C 111.785 10.321,111.588 9.762,111.424 9.167 C 111.259 8.571,111.030 7.783,110.914 7.417 C 110.544 6.244,110.279 4.948,109.907 2.500 C 109.859 2.179,109.781 1.673,109.735 1.375 L 109.652 0.833 54.826 0.833 L 0.000 0.833 0.000 76.833 M125.556 1.875 C 125.920 5.538,128.519 11.837,130.744 14.453 C 130.839 14.564,130.992 14.753,131.083 14.872 C 132.441 16.638,134.214 18.494,135.880 19.892 C 136.915 20.761,138.787 22.167,138.909 22.167 C 138.950 22.167,139.306 22.382,139.700 22.644 C 140.298 23.043,141.285 23.611,142.667 24.354 C 142.804 24.428,143.292 24.644,143.750 24.833 C 144.208 25.023,144.714 25.251,144.873 25.339 C 145.032 25.428,145.257 25.500,145.373 25.501 C 145.489 25.502,145.785 25.607,146.030 25.735 C 146.276 25.864,146.726 26.022,147.030 26.087 C 147.335 26.152,147.658 26.263,147.750 26.334 C 147.842 26.404,148.251 26.518,148.660 26.585 C 149.069 26.653,149.519 26.770,149.660 26.846 C 149.941 26.997,151.545 27.269,153.500 27.497 C 155.121 27.686,159.754 27.688,161.250 27.499 C 163.043 27.273,164.548 27.001,164.917 26.836 C 165.100 26.753,165.512 26.636,165.833 26.574 C 166.154 26.512,166.492 26.404,166.583 26.333 C 166.675 26.263,166.999 26.152,167.303 26.087 C 167.607 26.022,168.057 25.864,168.303 25.735 C 168.549 25.607,168.875 25.502,169.028 25.501 C 169.181 25.500,169.331 25.444,169.361 25.375 C 169.392 25.306,170.017 24.956,170.750 24.598 C 175.171 22.435,179.165 18.632,181.353 14.500 C 181.571 14.088,181.806 13.725,181.875 13.694 C 181.944 13.664,182.000 13.551,182.001 13.444 C 182.002 13.338,182.107 13.049,182.235 12.803 C 183.607 10.174,184.717 3.796,184.229 1.354 L 184.125 0.833 154.788 0.833 L 125.452 0.833 125.556 1.875 " stroke="none" fill="#fbfbfb" fill-rule="evenodd"></path><path id="path2" d="M0.000 0.417 L 0.000 0.833 54.821 0.833 C 98.529 0.833,109.657 0.876,109.713 1.042 C 109.753 1.156,109.759 1.089,109.727 0.892 C 109.638 0.342,109.671 0.340,117.746 0.450 L 125.333 0.554 125.356 1.069 C 125.373 1.461,125.396 1.494,125.451 1.208 L 125.523 0.833 154.845 0.833 L 184.167 0.833 184.183 1.208 C 184.199 1.567,184.205 1.566,184.315 1.171 L 184.430 0.758 189.173 0.798 C 197.045 0.864,199.804 0.997,199.885 1.314 C 199.923 1.462,199.937 1.415,199.917 1.208 L 199.880 0.833 299.940 0.833 L 400.000 0.833 400.000 0.417 L 400.000 0.000 200.000 0.000 L 0.000 0.000 0.000 0.417 M109.875 2.250 C 109.877 2.617,109.911 2.747,109.951 2.540 C 109.991 2.332,109.990 2.032,109.948 1.873 C 109.906 1.714,109.874 1.883,109.875 2.250 M200.050 4.167 C 200.050 4.671,200.081 4.877,200.119 4.625 C 200.158 4.373,200.158 3.960,200.119 3.708 C 200.081 3.456,200.050 3.663,200.050 4.167 M184.196 5.104 C 184.180 5.482,184.129 6.045,184.084 6.354 L 184.001 6.917 184.176 6.359 C 184.272 6.053,184.323 5.490,184.288 5.109 L 184.225 4.417 184.196 5.104 M110.690 6.667 C 110.690 6.804,110.755 7.067,110.833 7.250 C 110.924 7.460,110.977 7.491,110.977 7.333 C 110.977 7.196,110.912 6.933,110.833 6.750 C 110.743 6.540,110.690 6.509,110.690 6.667 M183.686 8.361 C 183.675 8.514,183.624 8.777,183.571 8.945 C 183.480 9.234,183.485 9.235,183.665 8.953 C 183.770 8.790,183.822 8.527,183.781 8.370 C 183.713 8.112,183.703 8.111,183.686 8.361 M199.593 9.426 C 199.530 9.760,199.512 10.067,199.553 10.108 C 199.593 10.149,199.678 9.909,199.741 9.574 C 199.803 9.240,199.821 8.933,199.781 8.892 C 199.740 8.851,199.655 9.091,199.593 9.426 M199.186 11.861 C 199.175 12.014,199.124 12.277,199.071 12.445 C 198.980 12.734,198.985 12.735,199.165 12.453 C 199.270 12.290,199.322 12.027,199.281 11.870 C 199.213 11.612,199.203 11.611,199.186 11.861 M133.821 18.222 C 134.245 18.689,134.337 18.747,134.328 18.542 C 134.325 18.473,134.119 18.273,133.870 18.097 L 133.417 17.777 133.821 18.222 M135.000 19.219 C 135.000 19.265,135.375 19.616,135.833 20.000 C 136.292 20.384,136.667 20.660,136.667 20.614 C 136.667 20.569,136.292 20.217,135.833 19.833 C 135.375 19.450,135.000 19.173,135.000 19.219 M177.324 19.958 L 176.750 20.583 177.375 20.009 C 177.957 19.474,178.077 19.333,177.949 19.333 C 177.922 19.333,177.640 19.615,177.324 19.958 M193.910 24.375 C 193.654 24.765,193.550 24.995,193.680 24.888 C 193.930 24.681,194.568 23.667,194.448 23.667 C 194.409 23.667,194.167 23.985,193.910 24.375 M151.014 27.226 C 151.052 27.259,151.383 27.332,151.750 27.388 C 152.204 27.458,152.337 27.440,152.167 27.331 C 151.939 27.186,150.852 27.087,151.014 27.226 M162.500 27.336 C 162.324 27.451,162.423 27.468,162.833 27.392 C 163.552 27.261,163.688 27.166,163.153 27.169 C 162.931 27.171,162.637 27.246,162.500 27.336 M153.542 27.615 C 153.702 27.657,153.965 27.657,154.125 27.615 C 154.285 27.573,154.154 27.539,153.833 27.539 C 153.512 27.539,153.381 27.573,153.542 27.615 M155.883 27.791 C 156.690 27.821,157.965 27.821,158.717 27.791 C 159.468 27.760,158.808 27.735,157.250 27.735 C 155.692 27.735,155.077 27.760,155.883 27.791 M190.242 29.042 L 189.583 29.750 190.292 29.091 C 190.681 28.729,191.000 28.410,191.000 28.383 C 191.000 28.257,190.855 28.383,190.242 29.042 M187.824 31.458 L 187.250 32.083 187.875 31.509 C 188.457 30.974,188.577 30.833,188.449 30.833 C 188.422 30.833,188.140 31.115,187.824 31.458 M141.333 39.139 C 141.471 39.224,141.771 39.343,142.000 39.404 C 142.290 39.482,142.340 39.469,142.167 39.361 C 142.029 39.276,141.729 39.157,141.500 39.096 C 141.210 39.018,141.160 39.031,141.333 39.139 M142.833 39.639 C 142.971 39.724,143.271 39.843,143.500 39.904 C 143.790 39.982,143.840 39.969,143.667 39.861 C 143.529 39.776,143.229 39.657,143.000 39.596 C 142.710 39.518,142.660 39.531,142.833 39.639 M146.833 40.833 C 147.403 41.016,147.841 41.016,147.417 40.833 C 147.233 40.755,146.933 40.692,146.750 40.695 C 146.482 40.699,146.498 40.726,146.833 40.833 M168.083 41.167 C 167.622 41.284,167.616 41.295,168.000 41.311 C 168.229 41.321,168.529 41.256,168.667 41.167 C 168.950 40.983,168.804 40.983,168.083 41.167 M151.250 41.665 C 151.568 41.803,152.797 41.898,152.653 41.773 C 152.615 41.741,152.208 41.670,151.750 41.617 C 151.214 41.555,151.036 41.573,151.250 41.665 M165.167 41.667 L 164.417 41.783 165.083 41.806 C 165.450 41.818,165.862 41.756,166.000 41.667 C 166.137 41.578,166.175 41.515,166.083 41.528 C 165.992 41.540,165.579 41.603,165.167 41.667 M156.500 42.196 C 156.912 42.258,157.887 42.309,158.667 42.309 C 159.446 42.309,160.421 42.258,160.833 42.196 C 161.255 42.133,160.307 42.083,158.667 42.083 C 157.026 42.083,156.078 42.133,156.500 42.196 M3.960 72.118 C 4.168 72.158,4.468 72.156,4.627 72.115 C 4.786 72.073,4.617 72.040,4.250 72.042 C 3.883 72.044,3.753 72.078,3.960 72.118 M5.847 72.227 C 5.885 72.260,6.329 72.329,6.833 72.380 C 7.404 72.438,7.624 72.420,7.417 72.332 C 7.097 72.196,5.704 72.103,5.847 72.227 M9.847 72.726 C 9.885 72.759,10.217 72.832,10.583 72.888 C 11.037 72.958,11.170 72.940,11.000 72.831 C 10.772 72.686,9.685 72.587,9.847 72.726 M12.667 73.231 C 12.667 73.267,12.888 73.328,13.158 73.368 C 13.428 73.407,13.611 73.378,13.565 73.303 C 13.482 73.170,12.667 73.104,12.667 73.231 M15.014 73.727 C 15.052 73.759,15.308 73.837,15.583 73.898 C 15.948 73.980,16.016 73.964,15.833 73.841 C 15.608 73.689,14.847 73.582,15.014 73.727 M47.167 91.750 C 48.034 92.621,48.781 93.333,48.827 93.333 C 48.873 93.333,48.201 92.621,47.333 91.750 C 46.466 90.879,45.719 90.167,45.673 90.167 C 45.627 90.167,46.299 90.879,47.167 91.750 M4.711 93.620 C 4.964 93.658,5.339 93.657,5.544 93.617 C 5.749 93.578,5.542 93.546,5.083 93.548 C 4.625 93.549,4.457 93.581,4.711 93.620 M8.000 93.985 C 8.137 94.060,8.587 94.167,9.000 94.222 C 9.450 94.281,9.617 94.267,9.417 94.185 C 8.946 93.994,7.693 93.817,8.000 93.985 M53.833 99.086 C 53.833 99.150,54.133 99.579,54.500 100.040 C 54.867 100.500,55.167 100.827,55.167 100.767 C 55.167 100.706,54.867 100.277,54.500 99.813 C 54.133 99.350,53.833 99.022,53.833 99.086 M32.558 105.833 C 32.871 106.108,33.176 106.333,33.236 106.333 C 33.296 106.333,33.089 106.108,32.775 105.833 C 32.462 105.558,32.157 105.333,32.097 105.333 C 32.037 105.333,32.245 105.558,32.558 105.833 M35.333 108.417 C 35.831 108.921,36.276 109.333,36.322 109.333 C 36.368 109.333,35.998 108.921,35.500 108.417 C 35.002 107.912,34.557 107.500,34.511 107.500 C 34.466 107.500,34.835 107.912,35.333 108.417 M37.000 110.106 C 37.000 110.195,37.281 110.526,37.625 110.842 L 38.250 111.417 37.667 110.752 C 37.346 110.386,37.065 110.055,37.042 110.016 C 37.019 109.977,37.000 110.017,37.000 110.106 M69.435 131.917 C 69.572 132.529,69.668 132.663,69.664 132.236 C 69.663 132.060,69.585 131.804,69.492 131.667 C 69.369 131.484,69.353 131.552,69.435 131.917 M69.935 134.083 C 70.072 134.696,70.168 134.829,70.164 134.403 C 70.163 134.227,70.085 133.971,69.992 133.833 C 69.869 133.651,69.853 133.718,69.935 134.083 M50.602 135.250 C 50.739 135.863,50.834 135.996,50.831 135.569 C 50.829 135.394,50.752 135.137,50.659 135.000 C 50.536 134.817,50.520 134.885,50.602 135.250 M70.441 136.667 C 70.573 137.385,70.668 137.521,70.664 136.986 C 70.663 136.765,70.588 136.471,70.498 136.333 C 70.382 136.157,70.366 136.256,70.441 136.667 M51.102 137.250 C 51.239 137.863,51.334 137.996,51.331 137.569 C 51.329 137.394,51.252 137.137,51.159 137.000 C 51.036 136.817,51.020 136.885,51.102 137.250 M70.945 139.750 C 71.071 140.574,71.167 140.714,71.164 140.069 C 71.163 139.802,71.090 139.471,71.002 139.333 C 70.894 139.163,70.875 139.296,70.945 139.750 M52.033 141.750 C 52.033 141.933,52.093 142.271,52.167 142.500 C 52.272 142.830,52.300 142.847,52.300 142.583 C 52.300 142.400,52.240 142.063,52.167 141.833 C 52.061 141.503,52.033 141.486,52.033 141.750 M71.453 143.833 C 71.505 144.337,71.574 144.781,71.607 144.819 C 71.731 144.963,71.637 143.569,71.502 143.250 C 71.413 143.043,71.395 143.263,71.453 143.833 M52.539 145.333 C 52.539 145.654,52.573 145.785,52.615 145.625 C 52.657 145.465,52.657 145.202,52.615 145.042 C 52.573 144.881,52.539 145.012,52.539 145.333 M52.705 146.500 C 52.705 146.821,52.740 146.952,52.782 146.792 C 52.823 146.631,52.823 146.369,52.782 146.208 C 52.740 146.048,52.705 146.179,52.705 146.500 M71.705 146.500 C 71.705 146.821,71.740 146.952,71.782 146.792 C 71.823 146.631,71.823 146.369,71.782 146.208 C 71.740 146.048,71.705 146.179,71.705 146.500 M52.872 149.000 C 52.872 149.321,52.906 149.452,52.948 149.292 C 52.990 149.131,52.990 148.869,52.948 148.708 C 52.906 148.548,52.872 148.679,52.872 149.000 M71.866 151.778 L 71.833 152.973 35.917 152.877 L 0.000 152.781 0.000 153.224 L 0.000 153.667 200.000 153.667 L 400.000 153.667 400.000 153.250 L 400.000 152.833 236.008 152.833 L 72.015 152.833 71.957 151.708 L 71.899 150.583 71.866 151.778 " stroke="none" fill="#e4e4e4" fill-rule="evenodd"></path><path id="path3" d="M111.125 0.457 C 111.790 0.489,112.877 0.489,113.542 0.457 C 114.206 0.425,113.662 0.400,112.333 0.400 C 111.004 0.400,110.460 0.425,111.125 0.457 M184.384 0.886 C 184.338 0.961,184.345 1.067,184.400 1.122 C 184.455 1.177,184.500 1.153,184.500 1.069 C 184.500 0.979,186.976 0.925,190.542 0.938 C 193.865 0.949,196.321 0.932,196.000 0.900 C 194.717 0.772,184.462 0.759,184.384 0.886 M184.395 3.000 C 184.395 3.963,184.423 4.356,184.456 3.875 C 184.490 3.394,184.490 2.606,184.456 2.125 C 184.423 1.644,184.395 2.037,184.395 3.000 M199.885 2.583 C 199.886 3.133,199.917 3.338,199.954 3.039 C 199.991 2.739,199.990 2.289,199.952 2.039 C 199.914 1.788,199.884 2.033,199.885 2.583 M199.881 5.917 C 199.882 6.375,199.915 6.543,199.953 6.289 C 199.991 6.036,199.990 5.661,199.951 5.456 C 199.911 5.251,199.880 5.458,199.881 5.917 M199.709 8.250 C 199.711 8.617,199.745 8.747,199.785 8.540 C 199.824 8.332,199.823 8.032,199.781 7.873 C 199.739 7.714,199.707 7.883,199.709 8.250 M132.500 16.885 C 132.500 16.914,132.744 17.158,133.042 17.427 L 133.583 17.917 133.094 17.375 C 132.638 16.870,132.500 16.757,132.500 16.885 M178.406 18.875 L 177.917 19.417 178.458 18.927 C 178.963 18.471,179.077 18.333,178.948 18.333 C 178.919 18.333,178.675 18.577,178.406 18.875 M176.240 21.042 L 175.750 21.583 176.292 21.094 C 176.797 20.638,176.910 20.500,176.781 20.500 C 176.752 20.500,176.509 20.744,176.240 21.042 M122.750 27.333 C 123.571 28.158,124.281 28.833,124.326 28.833 C 124.372 28.833,123.738 28.158,122.917 27.333 C 122.095 26.508,121.386 25.833,121.340 25.833 C 121.294 25.833,121.929 26.508,122.750 27.333 M157.792 42.123 C 158.273 42.157,159.060 42.157,159.542 42.123 C 160.023 42.089,159.629 42.062,158.667 42.062 C 157.704 42.062,157.310 42.089,157.792 42.123 M0.243 72.208 C 0.199 72.323,0.184 77.067,0.208 82.750 L 0.253 93.083 0.293 82.639 C 0.325 74.470,0.379 72.176,0.542 72.110 C 0.705 72.045,0.704 72.023,0.536 72.013 C 0.419 72.006,0.287 72.094,0.243 72.208 M2.375 72.119 C 2.627 72.158,3.040 72.158,3.292 72.119 C 3.544 72.081,3.337 72.050,2.833 72.050 C 2.329 72.050,2.123 72.081,2.375 72.119 M4.792 72.284 C 4.998 72.324,5.335 72.324,5.542 72.284 C 5.748 72.245,5.579 72.212,5.167 72.212 C 4.754 72.212,4.585 72.245,4.792 72.284 M45.833 90.583 C 46.331 91.087,46.776 91.500,46.822 91.500 C 46.868 91.500,46.498 91.087,46.000 90.583 C 45.502 90.079,45.057 89.667,45.011 89.667 C 44.966 89.667,45.335 90.079,45.833 90.583 M0.792 93.287 C 1.090 93.324,1.577 93.324,1.875 93.287 C 2.173 93.250,1.929 93.220,1.333 93.220 C 0.737 93.220,0.494 93.250,0.792 93.287 M49.333 94.083 C 49.831 94.587,50.276 95.000,50.322 95.000 C 50.368 95.000,49.998 94.587,49.500 94.083 C 49.002 93.579,48.557 93.167,48.511 93.167 C 48.466 93.167,48.835 93.579,49.333 94.083 M71.545 145.500 C 71.545 145.912,71.578 146.081,71.618 145.875 C 71.657 145.669,71.657 145.331,71.618 145.125 C 71.578 144.919,71.545 145.087,71.545 145.500 M71.712 147.667 C 71.712 148.079,71.745 148.248,71.784 148.042 C 71.824 147.835,71.824 147.498,71.784 147.292 C 71.745 147.085,71.712 147.254,71.712 147.667 M52.872 148.000 C 52.872 148.321,52.906 148.452,52.948 148.292 C 52.990 148.131,52.990 147.869,52.948 147.708 C 52.906 147.548,52.872 147.679,52.872 148.000 M53.074 151.417 L 53.083 152.917 62.500 152.919 L 71.917 152.921 62.548 152.876 L 53.179 152.831 53.122 151.374 L 53.065 149.917 53.074 151.417 " stroke="none" fill="#bcc2c3" fill-rule="evenodd"></path><path id="path4" d="M121.125 0.624 C 121.881 0.655,123.119 0.655,123.875 0.624 C 124.631 0.593,124.013 0.568,122.500 0.568 C 120.987 0.568,120.369 0.593,121.125 0.624 M184.500 1.042 C 184.500 1.156,184.478 2.262,184.451 3.500 C 184.422 4.860,184.452 5.486,184.529 5.083 C 184.599 4.717,184.648 3.667,184.639 2.750 L 184.621 1.083 185.185 0.980 L 185.750 0.877 185.125 0.855 C 184.724 0.841,184.500 0.908,184.500 1.042 M199.736 4.417 C 199.735 7.285,199.751 7.509,199.857 6.022 C 199.924 5.072,199.925 3.572,199.858 2.689 C 199.758 1.361,199.737 1.661,199.736 4.417 M110.113 2.750 C 110.166 3.208,110.237 3.615,110.271 3.653 C 110.388 3.784,110.300 2.750,110.158 2.333 C 110.063 2.052,110.048 2.188,110.113 2.750 M125.345 2.597 C 125.351 2.865,125.423 3.233,125.504 3.417 C 125.603 3.639,125.619 3.501,125.553 3.000 C 125.436 2.117,125.328 1.908,125.345 2.597 M125.857 4.833 C 125.857 4.971,125.921 5.233,126.000 5.417 C 126.090 5.627,126.143 5.658,126.143 5.500 C 126.143 5.362,126.079 5.100,126.000 4.917 C 125.910 4.707,125.857 4.676,125.857 4.833 M110.523 5.167 C 110.523 5.304,110.588 5.567,110.667 5.750 C 110.757 5.960,110.810 5.991,110.810 5.833 C 110.810 5.696,110.745 5.433,110.667 5.250 C 110.576 5.040,110.523 5.009,110.523 5.167 M183.938 8.021 C 183.799 8.716,183.933 8.850,184.083 8.167 C 184.147 7.879,184.164 7.608,184.121 7.566 C 184.079 7.523,183.996 7.728,183.938 8.021 M199.250 10.333 C 199.186 10.712,199.169 11.057,199.211 11.100 C 199.254 11.143,199.339 10.865,199.400 10.483 C 199.461 10.101,199.479 9.756,199.439 9.717 C 199.399 9.677,199.314 9.954,199.250 10.333 M198.762 12.762 C 198.701 13.006,198.683 13.238,198.722 13.277 C 198.761 13.317,198.843 13.149,198.905 12.905 C 198.966 12.661,198.984 12.429,198.945 12.389 C 198.906 12.350,198.823 12.518,198.762 12.762 M129.770 13.542 C 130.127 14.144,131.654 16.117,131.930 16.333 C 132.106 16.471,132.021 16.316,131.741 15.990 C 131.461 15.663,130.906 14.932,130.509 14.365 C 129.872 13.458,129.426 12.960,129.770 13.542 M198.262 14.595 C 198.201 14.839,198.183 15.071,198.222 15.111 C 198.261 15.150,198.343 14.982,198.405 14.738 C 198.466 14.494,198.484 14.262,198.445 14.223 C 198.406 14.183,198.323 14.351,198.262 14.595 M197.361 17.325 C 197.264 17.605,197.219 17.833,197.263 17.833 C 197.375 17.833,197.690 16.968,197.607 16.885 C 197.569 16.847,197.459 17.045,197.361 17.325 M133.667 18.250 C 134.257 18.846,134.778 19.333,134.824 19.333 C 134.870 19.333,134.424 18.846,133.833 18.250 C 133.243 17.654,132.722 17.167,132.676 17.167 C 132.630 17.167,133.076 17.654,133.667 18.250 M179.406 17.779 C 179.150 18.115,179.025 18.338,179.129 18.273 C 179.342 18.142,180.064 17.167,179.948 17.167 C 179.907 17.167,179.663 17.442,179.406 17.779 M177.162 20.292 L 176.083 21.417 177.208 20.338 C 178.253 19.336,178.410 19.167,178.287 19.167 C 178.261 19.167,177.755 19.673,177.162 20.292 M135.176 19.625 C 135.181 19.694,135.425 19.933,135.718 20.156 L 136.250 20.562 135.760 20.031 C 135.251 19.479,135.160 19.416,135.176 19.625 M175.167 22.025 C 174.846 22.306,174.734 22.460,174.919 22.367 C 175.223 22.213,175.978 21.491,175.817 21.507 C 175.780 21.510,175.487 21.744,175.167 22.025 M139.583 22.902 C 139.858 23.138,140.152 23.332,140.236 23.333 C 140.417 23.333,140.415 23.332,139.667 22.849 L 139.083 22.472 139.583 22.902 M120.833 25.100 C 120.833 25.185,121.715 26.117,122.792 27.169 L 124.750 29.083 122.833 27.089 C 121.779 25.992,120.898 25.061,120.875 25.019 C 120.852 24.978,120.833 25.014,120.833 25.100 M145.833 25.929 C 145.833 26.042,146.699 26.356,146.782 26.274 C 146.819 26.236,146.622 26.125,146.342 26.028 C 146.062 25.930,145.833 25.886,145.833 25.929 M147.333 26.475 C 147.471 26.556,147.808 26.670,148.083 26.730 C 148.403 26.799,148.493 26.785,148.333 26.691 C 148.196 26.611,147.858 26.496,147.583 26.437 C 147.263 26.368,147.173 26.381,147.333 26.475 M149.167 26.992 C 149.304 27.085,149.560 27.163,149.736 27.164 C 150.163 27.168,150.029 27.072,149.417 26.935 C 149.052 26.853,148.984 26.869,149.167 26.992 M164.833 27.000 C 164.490 27.110,164.475 27.136,164.750 27.148 C 164.933 27.155,165.196 27.089,165.333 27.000 C 165.625 26.811,165.423 26.811,164.833 27.000 M151.417 27.496 C 151.735 27.637,152.798 27.732,152.653 27.607 C 152.615 27.573,152.246 27.502,151.833 27.447 C 151.333 27.381,151.194 27.397,151.417 27.496 M161.250 27.675 C 160.921 27.764,161.092 27.779,161.750 27.718 C 162.300 27.667,162.781 27.597,162.819 27.562 C 162.943 27.451,161.764 27.536,161.250 27.675 M153.042 27.782 C 153.202 27.823,153.465 27.823,153.625 27.782 C 153.785 27.740,153.654 27.705,153.333 27.705 C 153.012 27.705,152.881 27.740,153.042 27.782 M156.215 27.957 C 156.838 27.989,157.813 27.989,158.382 27.957 C 158.951 27.924,158.442 27.898,157.250 27.898 C 156.058 27.898,155.593 27.925,156.215 27.957 M189.163 29.958 L 187.750 31.417 189.208 30.004 C 190.010 29.227,190.667 28.570,190.667 28.545 C 190.667 28.424,190.475 28.604,189.163 29.958 M124.833 29.052 C 124.833 29.081,125.077 29.325,125.375 29.594 L 125.917 30.083 125.427 29.542 C 124.971 29.037,124.833 28.923,124.833 29.052 M127.833 31.552 C 127.833 31.593,128.109 31.837,128.445 32.094 C 128.782 32.350,129.004 32.475,128.940 32.371 C 128.808 32.158,127.833 31.436,127.833 31.552 M185.949 32.755 C 185.692 32.982,185.548 33.167,185.628 33.167 C 185.709 33.167,185.951 32.979,186.167 32.750 C 186.665 32.220,186.555 32.222,185.949 32.755 M130.000 33.160 C 130.229 33.352,130.567 33.587,130.750 33.683 C 130.977 33.801,130.951 33.745,130.667 33.506 C 130.438 33.314,130.100 33.079,129.917 32.984 C 129.689 32.866,129.716 32.922,130.000 33.160 M184.292 34.013 C 183.765 34.387,183.333 34.729,183.333 34.774 C 183.333 34.818,183.783 34.539,184.333 34.153 C 185.208 33.539,185.449 33.333,185.292 33.333 C 185.269 33.333,184.819 33.639,184.292 34.013 M182.191 35.410 C 181.088 36.113,180.858 36.343,181.750 35.851 C 182.423 35.480,183.320 34.840,183.167 34.841 C 183.121 34.842,182.682 35.098,182.191 35.410 M146.014 40.393 C 146.052 40.426,146.308 40.503,146.583 40.565 C 146.948 40.647,147.016 40.631,146.833 40.508 C 146.608 40.355,145.847 40.249,146.014 40.393 M148.014 40.893 C 148.052 40.925,148.346 41.000,148.667 41.059 C 149.077 41.134,149.176 41.118,149.000 41.002 C 148.774 40.854,147.849 40.751,148.014 40.893 M168.083 41.000 C 167.659 41.183,168.097 41.183,168.667 41.000 C 169.002 40.893,169.018 40.866,168.750 40.862 C 168.567 40.859,168.267 40.921,168.083 41.000 M150.875 41.448 C 151.035 41.490,151.298 41.490,151.458 41.448 C 151.619 41.406,151.487 41.372,151.167 41.372 C 150.846 41.372,150.715 41.406,150.875 41.448 M165.708 41.448 C 165.869 41.490,166.131 41.490,166.292 41.448 C 166.452 41.406,166.321 41.372,166.000 41.372 C 165.679 41.372,165.548 41.406,165.708 41.448 M154.167 41.861 C 154.579 41.924,156.642 41.970,158.750 41.963 C 160.858 41.956,162.396 41.927,162.167 41.898 C 161.293 41.789,153.454 41.753,154.167 41.861 M162.960 41.785 C 163.168 41.824,163.468 41.823,163.627 41.781 C 163.786 41.739,163.617 41.707,163.250 41.709 C 162.883 41.711,162.753 41.745,162.960 41.785 M0.958 72.118 C 1.165 72.157,1.502 72.157,1.708 72.118 C 1.915 72.078,1.746 72.045,1.333 72.045 C 0.921 72.045,0.752 72.078,0.958 72.118 M2.788 72.287 C 3.084 72.324,3.609 72.324,3.955 72.288 C 4.300 72.252,4.058 72.222,3.417 72.221 C 2.775 72.221,2.492 72.250,2.788 72.287 M7.181 72.560 C 7.219 72.593,7.700 72.662,8.250 72.713 C 8.871 72.771,9.092 72.755,8.833 72.670 C 8.422 72.535,7.046 72.444,7.181 72.560 M10.875 73.115 C 11.035 73.157,11.298 73.157,11.458 73.115 C 11.619 73.073,11.487 73.039,11.167 73.039 C 10.846 73.039,10.715 73.073,10.875 73.115 M13.167 73.492 C 13.304 73.585,13.560 73.663,13.736 73.664 C 14.163 73.668,14.029 73.572,13.417 73.435 C 13.052 73.353,12.984 73.369,13.167 73.492 M15.333 73.992 C 15.471 74.085,15.727 74.163,15.903 74.164 C 16.329 74.168,16.196 74.072,15.583 73.935 C 15.218 73.853,15.151 73.869,15.333 73.992 M37.833 84.250 C 38.144 84.479,38.440 84.666,38.491 84.666 C 38.648 84.664,37.593 83.846,37.426 83.839 C 37.339 83.836,37.523 84.021,37.833 84.250 M41.181 86.708 C 41.219 86.731,41.475 86.938,41.750 87.167 L 42.250 87.583 41.846 87.125 C 41.624 86.873,41.367 86.667,41.277 86.667 C 41.186 86.667,41.142 86.685,41.181 86.708 M45.417 90.333 C 45.868 90.792,46.275 91.167,46.321 91.167 C 46.367 91.167,46.035 90.792,45.583 90.333 C 45.132 89.875,44.725 89.500,44.679 89.500 C 44.633 89.500,44.965 89.875,45.417 90.333 M47.583 92.333 C 48.035 92.792,48.442 93.167,48.487 93.167 C 48.533 93.167,48.201 92.792,47.750 92.333 C 47.299 91.875,46.892 91.500,46.846 91.500 C 46.800 91.500,47.132 91.875,47.583 92.333 M2.788 93.287 C 3.084 93.324,3.609 93.324,3.955 93.288 C 4.300 93.252,4.058 93.222,3.417 93.221 C 2.775 93.221,2.492 93.250,2.788 93.287 M7.542 93.782 C 7.702 93.823,7.965 93.823,8.125 93.782 C 8.285 93.740,8.154 93.705,7.833 93.705 C 7.513 93.705,7.381 93.740,7.542 93.782 M49.833 94.750 C 50.331 95.254,50.776 95.667,50.822 95.667 C 50.868 95.667,50.498 95.254,50.000 94.750 C 49.502 94.246,49.057 93.833,49.011 93.833 C 48.966 93.833,49.335 94.246,49.833 94.750 M10.181 94.227 C 10.219 94.259,10.475 94.337,10.750 94.398 C 11.115 94.480,11.183 94.464,11.000 94.341 C 10.775 94.189,10.013 94.082,10.181 94.227 M11.917 94.641 C 12.432 94.862,13.296 95.032,13.000 94.855 C 12.862 94.772,12.487 94.658,12.167 94.602 C 11.773 94.532,11.692 94.545,11.917 94.641 M51.000 96.052 C 51.000 96.081,51.244 96.325,51.542 96.594 L 52.083 97.083 51.594 96.542 C 51.138 96.037,51.000 95.923,51.000 96.052 M54.516 100.333 C 54.818 100.746,55.087 101.115,55.115 101.153 C 55.144 101.191,55.166 101.153,55.164 101.069 C 55.163 100.985,54.893 100.617,54.565 100.250 L 53.968 99.583 54.516 100.333 M55.484 101.583 C 55.579 101.767,55.814 102.104,56.006 102.333 C 56.245 102.618,56.301 102.644,56.183 102.417 C 56.087 102.233,55.852 101.896,55.660 101.667 C 55.422 101.382,55.366 101.356,55.484 101.583 M30.167 103.555 C 30.167 103.601,30.467 103.876,30.833 104.167 C 31.200 104.457,31.500 104.657,31.500 104.611 C 31.500 104.566,31.200 104.290,30.833 104.000 C 30.467 103.710,30.167 103.509,30.167 103.555 M35.333 108.250 C 36.476 109.396,37.449 110.333,37.495 110.333 C 37.541 110.333,36.643 109.396,35.500 108.250 C 34.357 107.104,33.384 106.167,33.338 106.167 C 33.293 106.167,34.190 107.104,35.333 108.250 M48.929 129.500 C 48.990 129.729,49.110 130.029,49.195 130.167 C 49.302 130.340,49.315 130.290,49.238 130.000 C 49.176 129.771,49.057 129.471,48.972 129.333 C 48.865 129.160,48.851 129.210,48.929 129.500 M69.028 130.833 C 69.037 131.266,69.299 131.978,69.305 131.583 C 69.308 131.400,69.245 131.100,69.167 130.917 C 69.079 130.712,69.025 130.680,69.028 130.833 M51.362 137.500 C 51.370 137.933,51.633 138.644,51.638 138.250 C 51.641 138.067,51.579 137.767,51.500 137.583 C 51.412 137.379,51.359 137.347,51.362 137.500 M70.539 138.167 C 70.539 138.396,70.597 138.808,70.667 139.083 C 70.780 139.529,70.794 139.538,70.794 139.167 C 70.794 138.938,70.737 138.525,70.667 138.250 C 70.553 137.804,70.539 137.795,70.539 138.167 M51.943 140.250 C 51.999 140.617,52.072 140.948,52.105 140.986 C 52.232 141.129,52.137 140.237,51.992 139.917 C 51.887 139.684,51.872 139.785,51.943 140.250 M71.209 142.917 C 71.211 143.283,71.245 143.414,71.285 143.206 C 71.324 142.999,71.323 142.699,71.281 142.540 C 71.239 142.380,71.207 142.550,71.209 142.917 M52.539 143.667 C 52.539 143.987,52.573 144.119,52.615 143.958 C 52.657 143.798,52.657 143.535,52.615 143.375 C 52.573 143.215,52.539 143.346,52.539 143.667 M71.552 147.083 C 71.553 147.633,71.584 147.838,71.621 147.539 C 71.658 147.239,71.657 146.789,71.619 146.539 C 71.581 146.288,71.551 146.533,71.552 147.083 M52.872 147.000 C 52.872 147.321,52.906 147.452,52.948 147.292 C 52.990 147.131,52.990 146.869,52.948 146.708 C 52.906 146.548,52.872 146.679,52.872 147.000 M53.053 148.833 C 53.053 149.429,53.084 149.673,53.121 149.375 C 53.158 149.077,53.158 148.590,53.121 148.292 C 53.084 147.994,53.053 148.237,53.053 148.833 M71.732 150.583 C 71.733 151.867,71.759 152.370,71.791 151.701 C 71.822 151.032,71.822 149.982,71.790 149.368 C 71.758 148.753,71.732 149.300,71.732 150.583 " stroke="none" fill="#a4acac" fill-rule="evenodd"></path></g></svg>