<svg id="svg" version="1.1" xmlns="http://www.w3.org/2000/svg" xmlns:xlink="http://www.w3.org/1999/xlink" width="400" height="152.40506329113924" viewBox="0, 0, 400,152.40506329113924"><g id="svgg"><path id="path0" d="M110.213 1.040 C 110.426 3.624,111.617 8.647,112.348 10.039 C 112.432 10.199,112.500 10.409,112.500 10.507 C 112.500 10.605,112.654 11.037,112.842 11.467 C 113.031 11.898,113.250 12.400,113.329 12.583 C 114.953 16.328,117.118 19.860,119.917 23.329 C 121.471 25.256,124.949 28.629,127.333 30.522 C 128.650 31.567,130.997 33.206,132.196 33.917 C 135.128 35.654,140.261 38.167,140.879 38.167 C 140.963 38.167,141.269 38.272,141.558 38.400 C 141.847 38.528,142.496 38.762,143.000 38.921 C 143.504 39.079,144.086 39.273,144.293 39.352 C 145.098 39.657,149.503 40.642,151.167 40.889 C 157.898 41.889,163.170 41.688,170.000 40.169 C 171.486 39.838,174.609 38.856,175.609 38.404 C 175.897 38.273,176.180 38.167,176.236 38.167 C 176.467 38.167,180.671 36.050,181.833 35.349 C 188.272 31.464,193.441 25.855,196.527 19.406 C 197.344 17.700,197.466 17.406,198.073 15.688 C 198.505 14.466,198.640 13.994,199.105 12.083 C 199.788 9.278,200.173 5.051,200.007 2.167 L 199.917 0.583 192.400 0.540 L 184.883 0.497 184.784 3.123 C 184.672 6.067,184.107 9.236,183.490 10.373 C 183.404 10.532,183.333 10.745,183.333 10.846 C 183.333 10.947,183.108 11.516,182.833 12.110 C 182.558 12.704,182.333 13.219,182.333 13.255 C 182.333 13.788,179.286 18.041,177.930 19.402 C 176.727 20.609,174.031 22.833,173.770 22.833 C 173.721 22.833,173.397 23.030,173.049 23.270 C 171.922 24.047,169.007 25.404,167.250 25.969 C 164.679 26.797,163.214 27.110,160.831 27.342 C 158.726 27.547,154.303 27.457,152.583 27.175 C 151.240 26.954,149.788 26.657,149.250 26.494 C 148.975 26.411,148.188 26.181,147.500 25.984 C 146.813 25.787,146.179 25.560,146.092 25.480 C 146.005 25.399,145.832 25.333,145.708 25.333 C 145.376 25.333,142.292 23.911,140.917 23.124 C 132.313 18.199,126.723 10.237,125.383 1.000 L 125.250 0.083 117.689 0.040 L 110.128 -0.003 110.213 1.040 M0.444 71.944 C 0.241 72.148,0.314 92.468,0.519 92.595 C 0.621 92.658,1.876 92.771,3.308 92.847 C 10.305 93.215,17.984 95.510,23.917 99.005 C 24.375 99.275,24.863 99.547,25.000 99.609 C 28.066 101.001,35.139 107.025,38.666 111.250 C 40.635 113.608,43.833 118.103,43.833 118.511 C 43.833 118.597,43.908 118.667,44.000 118.667 C 44.092 118.667,44.167 118.749,44.167 118.849 C 44.167 118.950,44.316 119.242,44.499 119.498 C 46.313 122.046,49.495 129.619,50.907 134.750 C 51.059 135.300,51.256 136.012,51.346 136.333 C 52.275 139.648,52.941 144.571,53.267 150.542 L 53.365 152.333 62.625 152.333 L 71.885 152.333 71.775 149.292 C 71.589 144.191,71.024 139.476,69.994 134.417 C 69.505 132.016,68.851 129.278,68.442 127.917 C 68.304 127.458,68.103 126.783,67.995 126.417 C 66.484 121.273,63.930 115.155,61.177 110.083 C 60.717 109.237,58.493 105.543,57.667 104.253 C 54.461 99.251,48.647 92.559,44.246 88.806 C 43.994 88.592,43.699 88.330,43.589 88.224 C 42.698 87.367,39.539 84.946,37.167 83.302 C 34.756 81.631,29.832 78.856,27.333 77.759 C 26.738 77.498,25.875 77.119,25.417 76.918 C 24.958 76.717,24.321 76.454,24.000 76.334 C 23.679 76.215,23.192 76.022,22.917 75.907 C 22.362 75.674,19.744 74.790,18.833 74.527 C 16.834 73.951,15.726 73.665,14.250 73.343 C 13.333 73.143,12.433 72.944,12.250 72.900 C 9.576 72.256,0.840 71.549,0.444 71.944 " stroke="none" fill="#88644b" fill-rule="evenodd"></path><path id="path1" d="M0.000 76.333 L 0.000 152.333 26.500 152.333 L 53.000 152.333 52.992 150.958 C 52.976 148.067,52.547 143.828,51.926 140.417 C 51.390 137.474,51.306 137.070,51.166 136.750 C 51.085 136.567,50.945 136.079,50.854 135.667 C 50.555 134.310,50.313 133.421,50.167 133.146 C 50.088 132.996,49.972 132.602,49.909 132.269 C 49.847 131.936,49.736 131.626,49.662 131.581 C 49.589 131.535,49.478 131.199,49.417 130.833 C 49.355 130.468,49.236 130.126,49.152 130.074 C 49.068 130.023,49.000 129.868,49.000 129.731 C 49.000 129.492,48.498 128.235,48.161 127.627 C 48.072 127.468,48.000 127.258,48.000 127.161 C 48.000 126.978,47.307 125.450,46.112 123.000 C 44.576 119.849,41.287 114.757,39.114 112.167 C 36.499 109.049,32.810 105.392,30.893 104.015 C 30.585 103.794,30.333 103.550,30.333 103.473 C 30.333 103.396,30.259 103.333,30.169 103.333 C 30.078 103.333,29.872 103.223,29.710 103.088 C 27.643 101.358,21.979 98.051,19.000 96.834 C 18.496 96.629,17.855 96.361,17.577 96.239 C 17.298 96.117,16.323 95.781,15.410 95.492 C 14.497 95.203,13.600 94.903,13.417 94.826 C 13.233 94.749,12.708 94.602,12.250 94.498 C 11.792 94.395,10.929 94.198,10.333 94.060 C 8.349 93.600,6.277 93.327,3.417 93.146 C 1.858 93.047,0.490 92.939,0.375 92.905 C 0.211 92.857,0.167 90.564,0.167 82.163 L 0.167 71.481 2.292 71.550 C 4.818 71.631,8.254 71.923,9.417 72.154 C 9.875 72.245,10.737 72.400,11.333 72.498 C 13.662 72.881,15.833 73.366,17.667 73.915 C 18.171 74.066,18.808 74.249,19.083 74.322 C 19.628 74.467,20.927 74.904,22.750 75.557 C 25.303 76.472,29.939 78.597,31.667 79.646 C 31.988 79.840,32.456 80.082,32.708 80.183 C 32.960 80.284,33.167 80.434,33.167 80.516 C 33.167 80.599,33.265 80.667,33.386 80.667 C 33.837 80.667,41.754 86.117,42.333 86.826 C 42.379 86.882,42.621 87.085,42.871 87.276 C 46.699 90.212,53.143 97.227,56.548 102.167 C 57.601 103.694,59.290 106.271,59.681 106.947 C 61.918 110.815,63.620 114.174,65.072 117.583 C 65.228 117.950,65.425 118.400,65.509 118.583 C 66.092 119.858,67.734 124.569,68.414 126.917 C 68.573 127.467,68.807 128.238,68.935 128.631 C 69.062 129.024,69.167 129.525,69.167 129.746 C 69.167 129.967,69.235 130.189,69.318 130.240 C 69.401 130.292,69.517 130.727,69.577 131.209 C 69.637 131.690,69.751 132.233,69.832 132.417 C 69.987 132.769,70.213 133.883,70.575 136.083 C 70.696 136.817,70.813 137.417,70.836 137.417 C 70.902 137.417,71.317 140.603,71.498 142.500 C 71.589 143.462,71.740 144.758,71.832 145.378 C 71.924 145.999,72.000 147.817,72.000 149.420 L 72.000 152.333 236.000 152.333 L 400.000 152.333 400.000 76.333 L 400.000 0.333 300.125 0.333 L 200.250 0.333 200.303 3.179 C 200.352 5.815,200.258 7.160,199.845 9.750 C 199.597 11.304,198.897 14.251,198.676 14.672 C 198.603 14.813,198.488 15.174,198.422 15.475 C 198.356 15.776,198.197 16.224,198.069 16.470 C 197.940 16.715,197.835 17.004,197.834 17.111 C 197.834 17.219,197.727 17.519,197.597 17.778 C 197.466 18.038,197.013 18.962,196.589 19.833 C 194.184 24.773,190.508 29.348,186.454 32.447 C 185.884 32.883,185.326 33.317,185.214 33.411 C 184.804 33.760,184.559 33.933,183.417 34.682 C 182.775 35.103,182.137 35.497,182.000 35.558 C 181.862 35.619,181.487 35.829,181.167 36.025 C 180.182 36.624,178.428 37.498,178.208 37.499 C 178.094 37.500,178.000 37.575,178.000 37.667 C 178.000 37.758,177.906 37.836,177.792 37.839 C 177.677 37.842,177.283 37.990,176.917 38.167 C 176.550 38.344,176.134 38.491,175.992 38.494 C 175.850 38.497,175.662 38.568,175.575 38.651 C 175.379 38.837,171.943 40.000,171.588 40.000 C 171.445 40.000,171.199 40.067,171.039 40.148 C 170.749 40.297,169.322 40.623,167.000 41.072 C 160.889 42.253,152.768 41.899,146.333 40.171 C 144.458 39.667,143.219 39.299,142.995 39.179 C 142.854 39.104,142.479 38.987,142.161 38.919 C 141.843 38.851,141.508 38.737,141.417 38.667 C 141.325 38.596,141.006 38.486,140.708 38.423 C 140.410 38.359,140.167 38.238,140.167 38.153 C 140.167 38.069,140.055 38.000,139.918 38.000 C 139.313 38.000,133.904 35.339,132.197 34.202 C 131.617 33.816,131.089 33.500,131.024 33.500 C 130.958 33.500,130.644 33.278,130.327 33.007 C 130.010 32.735,129.656 32.510,129.542 32.507 C 129.427 32.503,129.331 32.444,129.329 32.375 C 129.326 32.306,129.026 32.066,128.662 31.841 C 128.298 31.617,128.000 31.373,128.000 31.300 C 128.000 31.227,127.904 31.167,127.787 31.167 C 127.670 31.167,127.454 31.035,127.307 30.875 C 127.160 30.715,126.793 30.396,126.490 30.167 C 124.112 28.366,120.520 24.616,118.288 21.606 C 117.667 20.768,117.101 20.008,117.031 19.917 C 115.496 17.915,112.470 11.705,111.590 8.750 C 111.426 8.200,111.235 7.635,111.167 7.494 C 111.098 7.353,110.990 6.903,110.928 6.494 C 110.865 6.085,110.746 5.600,110.662 5.417 C 110.578 5.233,110.434 4.596,110.343 4.000 C 110.252 3.404,110.135 2.654,110.083 2.333 C 110.030 2.012,109.948 1.431,109.900 1.042 L 109.813 0.333 54.906 0.333 L 0.000 0.333 0.000 76.333 M125.716 1.376 C 126.050 4.954,128.433 10.754,130.869 13.917 C 131.653 14.935,133.402 16.939,134.147 17.673 C 135.726 19.230,138.784 21.667,139.160 21.667 C 139.255 21.667,139.334 21.723,139.334 21.792 C 139.336 21.942,139.702 22.158,142.833 23.853 C 142.971 23.927,143.458 24.144,143.917 24.333 C 144.375 24.523,144.880 24.751,145.039 24.839 C 145.199 24.928,145.424 25.000,145.539 25.001 C 145.655 25.002,145.951 25.107,146.197 25.235 C 146.443 25.364,146.891 25.523,147.192 25.589 C 147.493 25.655,147.854 25.768,147.995 25.840 C 151.121 27.447,161.132 27.580,166.000 26.079 C 166.504 25.924,167.235 25.713,167.625 25.611 C 168.015 25.508,168.333 25.372,168.333 25.309 C 168.333 25.245,168.552 25.145,168.819 25.087 C 170.647 24.685,175.002 21.843,177.322 19.538 C 179.799 17.077,180.787 15.730,182.059 13.083 C 182.961 11.207,183.167 10.715,183.167 10.443 C 183.167 10.302,183.235 10.144,183.319 10.092 C 183.403 10.041,183.524 9.683,183.589 9.297 C 183.655 8.912,183.769 8.481,183.845 8.340 C 184.133 7.800,184.396 5.480,184.455 2.958 L 184.516 0.333 155.067 0.333 L 125.618 0.333 125.716 1.376 " stroke="none" fill="#fbfbfb" fill-rule="evenodd"></path><path id="path2" d="M0.000 0.167 C 0.000 0.277,18.417 0.333,54.917 0.333 C 91.417 0.333,109.833 0.277,109.833 0.167 C 109.833 0.056,91.417 0.000,54.917 0.000 C 18.417 0.000,0.000 0.056,0.000 0.167 M125.523 0.542 C 125.539 0.935,125.565 0.980,125.618 0.707 L 125.690 0.332 155.178 0.374 C 171.730 0.398,184.667 0.353,184.667 0.272 C 184.667 0.193,185.135 0.172,185.708 0.227 C 186.281 0.281,189.700 0.345,193.305 0.370 C 200.398 0.418,200.102 0.373,200.216 1.420 C 200.263 1.858,200.277 1.786,200.255 1.208 L 200.223 0.333 300.111 0.333 C 366.593 0.333,400.000 0.278,400.000 0.167 C 400.000 0.056,354.139 0.000,262.750 0.000 L 125.500 0.000 125.523 0.542 M184.558 2.500 C 184.558 3.279,184.587 3.598,184.622 3.208 C 184.657 2.819,184.657 2.181,184.622 1.792 C 184.587 1.402,184.558 1.721,184.558 2.500 M110.003 2.014 C 110.004 2.327,110.074 2.692,110.158 2.825 C 110.257 2.981,110.277 2.804,110.216 2.325 C 110.098 1.404,109.999 1.260,110.003 2.014 M110.500 4.907 C 110.500 5.131,110.561 5.352,110.637 5.398 C 110.712 5.444,110.741 5.261,110.701 4.991 C 110.614 4.396,110.500 4.348,110.500 4.907 M200.214 6.083 C 200.216 6.542,200.248 6.709,200.286 6.456 C 200.325 6.203,200.324 5.828,200.284 5.623 C 200.244 5.418,200.213 5.625,200.214 6.083 M184.273 5.868 C 184.217 6.078,184.178 6.438,184.187 6.667 C 184.197 6.912,184.263 6.780,184.348 6.344 C 184.501 5.563,184.447 5.220,184.273 5.868 M200.045 7.667 C 200.045 8.079,200.078 8.248,200.118 8.042 C 200.157 7.835,200.157 7.498,200.118 7.292 C 200.078 7.085,200.045 7.254,200.045 7.667 M111.429 8.333 C 111.490 8.563,111.610 8.862,111.695 9.000 C 111.802 9.174,111.815 9.123,111.738 8.833 C 111.676 8.604,111.557 8.304,111.472 8.167 C 111.365 7.993,111.351 8.044,111.429 8.333 M111.929 9.833 C 111.990 10.063,112.110 10.362,112.195 10.500 C 112.302 10.674,112.315 10.623,112.238 10.333 C 112.176 10.104,112.057 9.804,111.972 9.667 C 111.865 9.493,111.851 9.544,111.929 9.833 M177.495 19.458 L 176.417 20.583 177.542 19.505 C 178.587 18.503,178.743 18.333,178.620 18.333 C 178.595 18.333,178.088 18.840,177.495 19.458 M145.500 25.056 C 145.500 25.099,145.742 25.218,146.038 25.322 C 146.334 25.425,146.502 25.440,146.413 25.357 C 146.223 25.179,145.500 24.941,145.500 25.056 M167.083 25.756 C 166.667 25.957,166.653 25.980,167.000 25.895 C 167.472 25.779,168.003 25.509,167.750 25.513 C 167.658 25.514,167.358 25.623,167.083 25.756 M192.573 26.112 C 192.316 26.448,192.191 26.671,192.295 26.607 C 192.509 26.475,193.230 25.500,193.114 25.500 C 193.073 25.500,192.830 25.775,192.573 26.112 M154.100 27.199 C 154.902 27.341,160.401 27.333,161.072 27.189 C 161.341 27.131,159.736 27.083,157.505 27.083 C 155.274 27.083,153.742 27.135,154.100 27.199 M189.497 29.625 L 187.917 31.250 189.542 29.670 C 191.051 28.202,191.242 28.000,191.122 28.000 C 191.097 28.000,190.366 28.731,189.497 29.625 M187.240 31.708 L 186.750 32.250 187.292 31.760 C 187.797 31.304,187.910 31.167,187.781 31.167 C 187.752 31.167,187.509 31.410,187.240 31.708 M148.417 40.667 C 148.600 40.745,148.862 40.810,149.000 40.810 C 149.158 40.810,149.127 40.757,148.917 40.667 C 148.733 40.588,148.471 40.523,148.333 40.523 C 148.176 40.523,148.207 40.576,148.417 40.667 M168.583 40.667 C 168.373 40.757,168.342 40.810,168.500 40.810 C 168.637 40.810,168.900 40.745,169.083 40.667 C 169.293 40.576,169.324 40.523,169.167 40.523 C 169.029 40.523,168.767 40.588,168.583 40.667 M165.833 41.167 C 165.273 41.346,165.878 41.346,166.583 41.167 C 167.032 41.052,167.041 41.039,166.667 41.036 C 166.438 41.035,166.063 41.093,165.833 41.167 M154.625 41.621 C 154.923 41.658,155.410 41.658,155.708 41.621 C 156.006 41.584,155.762 41.553,155.167 41.553 C 154.571 41.553,154.327 41.584,154.625 41.621 M161.625 41.621 C 161.923 41.658,162.410 41.658,162.708 41.621 C 163.006 41.584,162.762 41.553,162.167 41.553 C 161.571 41.553,161.327 41.584,161.625 41.621 M157.458 41.790 C 158.123 41.822,159.210 41.822,159.875 41.790 C 160.540 41.759,159.996 41.733,158.667 41.733 C 157.337 41.733,156.794 41.759,157.458 41.790 M0.167 71.625 C 0.168 71.694,1.260 71.750,2.595 71.750 C 3.931 71.750,4.849 71.701,4.637 71.642 C 4.090 71.488,0.167 71.474,0.167 71.625 M8.181 72.060 C 8.219 72.093,8.587 72.165,9.000 72.219 C 9.501 72.286,9.639 72.270,9.417 72.171 C 9.098 72.030,8.036 71.935,8.181 72.060 M11.514 72.560 C 11.552 72.593,11.808 72.670,12.083 72.732 C 12.448 72.813,12.516 72.798,12.333 72.674 C 12.108 72.522,11.347 72.416,11.514 72.560 M14.014 73.060 C 14.052 73.093,14.308 73.170,14.583 73.232 C 14.948 73.313,15.016 73.298,14.833 73.174 C 14.608 73.022,13.847 72.916,14.014 73.060 M16.014 73.560 C 16.052 73.593,16.308 73.670,16.583 73.732 C 16.948 73.813,17.016 73.798,16.833 73.674 C 16.608 73.522,15.847 73.416,16.014 73.560 M43.167 87.552 C 43.167 87.581,43.410 87.825,43.708 88.094 L 44.250 88.583 43.760 88.042 C 43.304 87.537,43.167 87.423,43.167 87.552 M0.317 92.884 C 0.391 92.958,0.894 92.994,1.434 92.965 L 2.417 92.912 1.299 92.831 C 0.685 92.787,0.243 92.810,0.317 92.884 M3.542 93.115 C 3.702 93.157,3.965 93.157,4.125 93.115 C 4.285 93.073,4.154 93.039,3.833 93.039 C 3.512 93.039,3.381 93.073,3.542 93.115 M6.708 93.448 C 6.869 93.490,7.131 93.490,7.292 93.448 C 7.452 93.406,7.321 93.372,7.000 93.372 C 6.679 93.372,6.548 93.406,6.708 93.448 M9.333 93.826 C 9.471 93.919,9.727 93.996,9.903 93.997 C 10.329 94.001,10.196 93.905,9.583 93.768 C 9.218 93.687,9.151 93.702,9.333 93.826 M51.167 95.552 C 51.167 95.581,51.410 95.825,51.708 96.094 L 52.250 96.583 51.760 96.042 C 51.304 95.537,51.167 95.423,51.167 95.552 M28.667 102.318 C 28.896 102.506,29.158 102.660,29.250 102.660 C 29.428 102.662,29.127 102.431,28.583 102.150 C 28.362 102.035,28.390 102.092,28.667 102.318 M36.667 109.385 C 36.667 109.414,36.910 109.658,37.208 109.927 L 37.750 110.417 37.260 109.875 C 36.804 109.370,36.667 109.257,36.667 109.385 M70.268 134.917 C 70.405 135.529,70.501 135.663,70.497 135.236 C 70.496 135.060,70.419 134.804,70.326 134.667 C 70.202 134.484,70.187 134.552,70.268 134.917 M70.820 137.958 C 70.900 138.534,70.911 138.545,70.966 138.105 C 70.999 137.841,70.960 137.560,70.880 137.480 C 70.796 137.396,70.771 137.600,70.820 137.958 M51.503 138.347 C 51.504 138.569,51.579 138.862,51.669 139.000 C 51.784 139.176,51.801 139.077,51.726 138.667 C 51.594 137.948,51.499 137.812,51.503 138.347 M52.039 141.000 C 52.039 141.321,52.073 141.452,52.115 141.292 C 52.157 141.131,52.157 140.869,52.115 140.708 C 52.073 140.548,52.039 140.679,52.039 141.000 M71.281 141.167 C 71.335 141.579,71.407 141.948,71.440 141.986 C 71.565 142.131,71.470 141.068,71.329 140.750 C 71.230 140.527,71.214 140.666,71.281 141.167 M52.545 144.333 C 52.545 144.746,52.578 144.915,52.618 144.708 C 52.657 144.502,52.657 144.165,52.618 143.958 C 52.578 143.752,52.545 143.921,52.545 144.333 M71.794 146.500 C 71.841 147.279,71.907 147.948,71.940 147.986 C 72.051 148.114,71.962 146.089,71.834 145.583 C 71.765 145.308,71.747 145.720,71.794 146.500 M52.879 148.167 C 52.879 148.579,52.911 148.748,52.951 148.542 C 52.991 148.335,52.991 147.998,52.951 147.792 C 52.911 147.585,52.879 147.754,52.879 148.167 M53.062 150.667 C 53.062 151.629,53.089 152.023,53.123 151.542 C 53.157 151.060,53.157 150.273,53.123 149.792 C 53.089 149.310,53.062 149.704,53.062 150.667 " stroke="none" fill="#e4e3e3" fill-rule="evenodd"></path><path id="path3" d="M184.960 0.285 C 185.168 0.324,185.468 0.323,185.627 0.281 C 185.786 0.239,185.617 0.207,185.250 0.209 C 184.883 0.211,184.753 0.245,184.960 0.285 M192.367 0.457 C 193.164 0.488,194.514 0.488,195.367 0.458 C 196.219 0.427,195.567 0.402,193.917 0.402 C 192.267 0.402,191.569 0.427,192.367 0.457 M197.375 0.448 C 197.535 0.490,197.798 0.490,197.958 0.448 C 198.119 0.406,197.987 0.372,197.667 0.372 C 197.346 0.372,197.215 0.406,197.375 0.448 M200.228 3.750 C 200.228 4.667,200.256 5.020,200.290 4.536 C 200.324 4.052,200.323 3.302,200.289 2.869 C 200.255 2.437,200.227 2.833,200.228 3.750 M184.542 4.417 C 184.544 4.783,184.578 4.914,184.618 4.706 C 184.658 4.499,184.656 4.199,184.615 4.040 C 184.573 3.880,184.540 4.050,184.542 4.417 M132.667 16.385 C 132.667 16.414,132.910 16.658,133.208 16.927 L 133.750 17.417 133.260 16.875 C 132.804 16.370,132.667 16.257,132.667 16.385 M177.658 19.458 L 177.083 20.083 177.708 19.509 C 178.290 18.974,178.410 18.833,178.283 18.833 C 178.255 18.833,177.974 19.115,177.658 19.458 M122.167 26.083 C 122.757 26.679,123.278 27.167,123.324 27.167 C 123.370 27.167,122.924 26.679,122.333 26.083 C 121.743 25.488,121.222 25.000,121.176 25.000 C 121.130 25.000,121.576 25.488,122.167 26.083 M124.083 28.000 C 124.441 28.367,124.772 28.667,124.818 28.667 C 124.863 28.667,124.608 28.367,124.250 28.000 C 123.892 27.633,123.562 27.333,123.516 27.333 C 123.470 27.333,123.725 27.633,124.083 28.000 M190.573 28.375 L 190.083 28.917 190.625 28.427 C 191.130 27.971,191.243 27.833,191.115 27.833 C 191.086 27.833,190.842 28.077,190.573 28.375 M157.375 41.624 C 158.085 41.655,159.248 41.655,159.958 41.624 C 160.669 41.593,160.087 41.567,158.667 41.567 C 157.246 41.567,156.665 41.593,157.375 41.624 M0.245 82.250 C 0.245 88.025,0.266 90.363,0.292 87.446 C 0.317 84.529,0.317 79.804,0.292 76.946 C 0.266 74.088,0.245 76.475,0.245 82.250 M46.326 90.542 C 47.017 91.278,47.167 91.410,47.167 91.285 C 47.167 91.258,46.810 90.902,46.375 90.493 L 45.583 89.750 46.326 90.542 M49.167 93.417 C 49.665 93.921,50.109 94.333,50.155 94.333 C 50.201 94.333,49.831 93.921,49.333 93.417 C 48.835 92.912,48.391 92.500,48.345 92.500 C 48.299 92.500,48.669 92.912,49.167 93.417 M2.711 92.953 C 2.964 92.991,3.339 92.990,3.544 92.951 C 3.749 92.911,3.542 92.880,3.083 92.881 C 2.625 92.882,2.457 92.915,2.711 92.953 M35.667 108.250 C 36.442 109.029,37.113 109.667,37.159 109.667 C 37.205 109.667,36.608 109.029,35.833 108.250 C 35.058 107.471,34.387 106.833,34.341 106.833 C 34.295 106.833,34.892 107.471,35.667 108.250 M71.372 142.500 C 71.372 142.821,71.406 142.952,71.448 142.792 C 71.490 142.631,71.490 142.369,71.448 142.208 C 71.406 142.048,71.372 142.179,71.372 142.500 M52.875 146.917 C 52.877 147.283,52.911 147.414,52.951 147.206 C 52.991 146.999,52.990 146.699,52.948 146.540 C 52.906 146.380,52.874 146.550,52.875 146.917 M71.892 149.333 C 71.892 150.112,71.920 150.431,71.955 150.042 C 71.990 149.652,71.990 149.015,71.955 148.625 C 71.920 148.235,71.892 148.554,71.892 149.333 " stroke="none" fill="#ccbcb1" fill-rule="evenodd"></path><path id="path4" d="M125.314 0.536 C 125.390 0.999,125.414 1.023,125.466 0.689 C 125.500 0.472,125.460 0.226,125.376 0.142 C 125.283 0.050,125.259 0.205,125.314 0.536 M184.703 2.458 L 184.739 4.583 184.791 2.545 L 184.844 0.507 187.963 0.458 L 191.083 0.409 187.875 0.371 L 184.667 0.333 184.703 2.458 M200.055 2.250 C 200.055 2.892,200.086 3.134,200.122 2.788 C 200.158 2.442,200.157 1.917,200.120 1.621 C 200.083 1.325,200.054 1.608,200.055 2.250 M125.512 2.014 C 125.518 2.235,125.591 2.567,125.674 2.750 C 125.780 2.982,125.795 2.881,125.724 2.417 C 125.606 1.643,125.495 1.432,125.512 2.014 M110.372 3.000 C 110.372 3.321,110.406 3.452,110.448 3.292 C 110.490 3.131,110.490 2.869,110.448 2.708 C 110.406 2.548,110.372 2.679,110.372 3.000 M200.053 5.167 C 200.053 5.763,200.084 6.006,200.121 5.708 C 200.158 5.410,200.158 4.923,200.121 4.625 C 200.084 4.327,200.053 4.571,200.053 5.167 M184.542 5.583 C 184.544 5.950,184.578 6.080,184.618 5.873 C 184.658 5.666,184.656 5.366,184.615 5.206 C 184.573 5.047,184.540 5.217,184.542 5.583 M199.750 8.333 C 199.685 8.803,199.668 9.223,199.711 9.266 C 199.754 9.309,199.840 8.958,199.903 8.486 C 199.965 8.014,199.983 7.594,199.942 7.553 C 199.901 7.512,199.815 7.863,199.750 8.333 M184.019 8.195 C 184.009 8.348,183.957 8.610,183.904 8.778 C 183.813 9.067,183.818 9.068,183.999 8.786 C 184.103 8.623,184.155 8.361,184.114 8.203 C 184.046 7.945,184.037 7.944,184.019 8.195 M183.028 11.325 C 182.930 11.605,182.886 11.833,182.929 11.833 C 183.042 11.833,183.356 10.968,183.274 10.885 C 183.236 10.847,183.125 11.045,183.028 11.325 M199.250 11.333 C 199.187 11.621,199.170 11.892,199.212 11.934 C 199.255 11.977,199.337 11.772,199.396 11.479 C 199.535 10.784,199.400 10.650,199.250 11.333 M130.500 13.833 C 130.696 14.108,130.894 14.333,130.939 14.333 C 130.985 14.333,130.862 14.108,130.667 13.833 C 130.471 13.558,130.273 13.333,130.227 13.333 C 130.181 13.333,130.304 13.558,130.500 13.833 M131.498 15.164 C 131.788 15.530,132.111 15.883,132.218 15.948 C 132.324 16.014,132.122 15.715,131.769 15.284 C 131.416 14.853,131.092 14.500,131.049 14.500 C 131.007 14.500,131.209 14.799,131.498 15.164 M133.833 17.750 C 134.424 18.346,134.945 18.833,134.990 18.833 C 135.036 18.833,134.591 18.346,134.000 17.750 C 133.409 17.154,132.889 16.667,132.843 16.667 C 132.797 16.667,133.243 17.154,133.833 17.750 M178.740 18.375 L 178.250 18.917 178.792 18.427 C 179.297 17.971,179.410 17.833,179.281 17.833 C 179.252 17.833,179.009 18.077,178.740 18.375 M135.333 19.052 C 135.333 19.081,135.577 19.325,135.875 19.594 L 136.417 20.083 135.927 19.542 C 135.471 19.037,135.333 18.923,135.333 19.052 M177.740 19.542 L 177.250 20.083 177.792 19.594 C 178.297 19.138,178.410 19.000,178.281 19.000 C 178.252 19.000,178.009 19.244,177.740 19.542 M117.151 19.750 C 117.246 19.933,117.481 20.271,117.673 20.500 C 117.911 20.784,117.967 20.811,117.849 20.583 C 117.754 20.400,117.519 20.063,117.327 19.833 C 117.089 19.549,117.033 19.523,117.151 19.750 M176.573 20.542 L 176.083 21.083 176.625 20.594 C 177.130 20.138,177.243 20.000,177.115 20.000 C 177.086 20.000,176.842 20.244,176.573 20.542 M121.333 25.083 C 121.831 25.587,122.276 26.000,122.322 26.000 C 122.368 26.000,121.998 25.587,121.500 25.083 C 121.002 24.579,120.557 24.167,120.511 24.167 C 120.466 24.167,120.835 24.579,121.333 25.083 M192.943 25.375 C 192.417 26.107,192.400 26.155,192.836 25.667 C 193.326 25.117,193.744 24.500,193.625 24.500 C 193.595 24.500,193.289 24.894,192.943 25.375 M144.667 24.929 C 144.667 25.042,145.532 25.356,145.615 25.274 C 145.653 25.236,145.455 25.125,145.175 25.028 C 144.895 24.930,144.667 24.886,144.667 24.929 M146.000 25.429 C 146.000 25.542,146.866 25.856,146.948 25.774 C 146.986 25.736,146.788 25.625,146.509 25.528 C 146.229 25.430,146.000 25.386,146.000 25.429 M168.083 25.589 C 167.665 25.791,167.651 25.814,168.000 25.730 C 168.229 25.674,168.488 25.563,168.575 25.481 C 168.791 25.279,168.672 25.305,168.083 25.589 M149.333 26.492 C 149.471 26.585,149.727 26.663,149.903 26.664 C 150.329 26.668,150.196 26.572,149.583 26.435 C 149.218 26.353,149.151 26.369,149.333 26.492 M151.583 26.996 C 151.902 27.137,152.964 27.232,152.819 27.107 C 152.781 27.073,152.412 27.002,152.000 26.947 C 151.499 26.881,151.361 26.897,151.583 26.996 M162.667 27.000 C 162.097 27.120,162.095 27.123,162.583 27.133 C 162.858 27.139,163.233 27.079,163.417 27.000 C 163.817 26.828,163.485 26.828,162.667 27.000 M123.351 27.208 C 123.391 27.231,123.835 27.625,124.337 28.083 L 125.250 28.917 124.423 28.042 C 123.968 27.560,123.524 27.167,123.437 27.167 C 123.349 27.167,123.311 27.185,123.351 27.208 M190.833 27.917 C 190.428 28.329,190.135 28.667,190.181 28.667 C 190.226 28.667,190.595 28.329,191.000 27.917 C 191.405 27.504,191.699 27.167,191.653 27.167 C 191.607 27.167,191.238 27.504,190.833 27.917 M156.383 27.457 C 157.097 27.489,158.222 27.488,158.883 27.457 C 159.543 27.425,158.958 27.400,157.583 27.400 C 156.208 27.400,155.668 27.426,156.383 27.457 M189.333 29.583 C 188.928 29.996,188.635 30.333,188.681 30.333 C 188.726 30.333,189.095 29.996,189.500 29.583 C 189.905 29.171,190.199 28.833,190.153 28.833 C 190.107 28.833,189.738 29.171,189.333 29.583 M126.667 30.055 C 126.667 30.101,126.967 30.376,127.333 30.667 C 127.700 30.957,128.000 31.157,128.000 31.111 C 128.000 31.066,127.700 30.790,127.333 30.500 C 126.967 30.210,126.667 30.009,126.667 30.055 M187.742 31.042 L 187.083 31.750 187.792 31.091 C 188.181 30.729,188.500 30.410,188.500 30.383 C 188.500 30.257,188.355 30.383,187.742 31.042 M186.000 32.436 C 185.588 32.758,185.137 33.141,185.000 33.287 C 184.862 33.433,185.219 33.198,185.792 32.766 C 186.365 32.334,186.833 31.947,186.833 31.907 C 186.833 31.791,186.794 31.816,186.000 32.436 M138.667 37.417 C 138.896 37.548,139.158 37.655,139.250 37.655 C 139.342 37.655,139.229 37.548,139.000 37.417 C 138.771 37.286,138.508 37.178,138.417 37.178 C 138.325 37.178,138.438 37.286,138.667 37.417 M140.833 38.222 C 140.833 38.266,141.075 38.385,141.371 38.488 C 141.667 38.591,141.836 38.607,141.746 38.523 C 141.556 38.346,140.833 38.107,140.833 38.222 M145.583 39.833 C 145.767 39.912,146.029 39.977,146.167 39.977 C 146.324 39.977,146.293 39.924,146.083 39.833 C 145.900 39.755,145.637 39.690,145.500 39.690 C 145.342 39.690,145.373 39.743,145.583 39.833 M171.250 39.833 C 171.040 39.924,171.009 39.977,171.167 39.977 C 171.304 39.977,171.567 39.912,171.750 39.833 C 171.960 39.743,171.991 39.690,171.833 39.690 C 171.696 39.690,171.433 39.755,171.250 39.833 M169.250 40.333 C 169.040 40.424,169.009 40.477,169.167 40.477 C 169.304 40.477,169.567 40.412,169.750 40.333 C 169.960 40.243,169.991 40.190,169.833 40.190 C 169.696 40.190,169.433 40.255,169.250 40.333 M166.833 40.833 C 166.503 40.939,166.486 40.967,166.750 40.967 C 166.933 40.967,167.271 40.907,167.500 40.833 C 167.830 40.728,167.847 40.700,167.583 40.700 C 167.400 40.700,167.063 40.760,166.833 40.833 M153.294 41.285 C 153.501 41.324,153.801 41.323,153.960 41.281 C 154.120 41.239,153.950 41.207,153.583 41.209 C 153.217 41.211,153.086 41.245,153.294 41.285 M163.625 41.284 C 163.831 41.324,164.169 41.324,164.375 41.284 C 164.581 41.245,164.412 41.212,164.000 41.212 C 163.587 41.212,163.419 41.245,163.625 41.284 M154.542 41.448 C 154.702 41.490,154.965 41.490,155.125 41.448 C 155.285 41.406,155.154 41.372,154.833 41.372 C 154.512 41.372,154.381 41.406,154.542 41.448 M0.333 71.792 C 0.333 71.860,0.839 71.896,1.458 71.871 C 3.436 71.790,3.630 71.721,1.958 71.693 C 1.065 71.679,0.333 71.723,0.333 71.792 M4.514 71.894 C 4.552 71.927,5.221 71.995,6.000 72.045 C 6.989 72.108,7.215 72.093,6.750 71.994 C 6.090 71.854,4.380 71.777,4.514 71.894 M9.375 72.448 C 9.535 72.490,9.798 72.490,9.958 72.448 C 10.119 72.406,9.987 72.372,9.667 72.372 C 9.346 72.372,9.215 72.406,9.375 72.448 M14.250 73.333 C 14.433 73.412,14.733 73.474,14.917 73.472 C 15.185 73.468,15.168 73.441,14.833 73.333 C 14.263 73.151,13.825 73.151,14.250 73.333 M19.833 74.805 C 19.971 74.890,20.271 75.010,20.500 75.071 C 20.790 75.149,20.840 75.135,20.667 75.028 C 20.529 74.943,20.229 74.824,20.000 74.762 C 19.710 74.685,19.660 74.698,19.833 74.805 M22.667 75.763 C 22.667 75.875,23.532 76.190,23.615 76.107 C 23.653 76.069,23.455 75.959,23.175 75.861 C 22.895 75.764,22.667 75.719,22.667 75.763 M41.667 86.549 C 41.667 86.592,42.019 86.916,42.451 87.269 C 42.882 87.622,43.181 87.824,43.115 87.718 C 42.975 87.491,41.667 86.436,41.667 86.549 M46.035 90.415 C 46.651 91.049,47.178 91.534,47.206 91.492 C 47.235 91.451,46.732 90.932,46.088 90.339 L 44.917 89.262 46.035 90.415 M0.333 92.696 C 0.333 92.771,0.558 92.833,0.833 92.833 C 1.108 92.833,1.333 92.804,1.333 92.769 C 1.333 92.733,1.108 92.671,0.833 92.631 C 0.558 92.591,0.333 92.620,0.333 92.696 M49.250 93.667 C 49.794 94.217,50.277 94.667,50.323 94.667 C 50.369 94.667,49.961 94.217,49.417 93.667 C 48.872 93.117,48.390 92.667,48.344 92.667 C 48.298 92.667,48.706 93.117,49.250 93.667 M4.042 92.948 C 4.202 92.990,4.465 92.990,4.625 92.948 C 4.785 92.906,4.654 92.872,4.333 92.872 C 4.012 92.872,3.881 92.906,4.042 92.948 M5.458 93.118 C 5.665 93.157,6.002 93.157,6.208 93.118 C 6.415 93.078,6.246 93.045,5.833 93.045 C 5.421 93.045,5.252 93.078,5.458 93.118 M8.333 93.500 C 8.563 93.573,8.938 93.632,9.167 93.630 C 9.541 93.628,9.532 93.614,9.083 93.500 C 8.378 93.321,7.773 93.321,8.333 93.500 M10.750 94.000 C 10.933 94.079,11.233 94.141,11.417 94.138 C 11.685 94.134,11.668 94.107,11.333 94.000 C 10.763 93.817,10.325 93.817,10.750 94.000 M28.000 101.552 C 28.000 101.593,28.275 101.837,28.612 102.094 C 28.948 102.350,29.171 102.475,29.107 102.371 C 28.975 102.158,28.000 101.436,28.000 101.552 M56.449 102.513 C 56.615 102.795,56.857 103.114,56.987 103.221 C 57.117 103.329,57.013 103.098,56.756 102.708 C 56.217 101.890,56.004 101.755,56.449 102.513 M29.333 102.552 C 29.333 102.593,29.609 102.837,29.945 103.094 C 30.282 103.350,30.504 103.475,30.440 103.371 C 30.308 103.158,29.333 102.436,29.333 102.552 M32.500 105.052 C 32.500 105.081,32.744 105.325,33.042 105.594 L 33.583 106.083 33.094 105.542 C 32.638 105.037,32.500 104.923,32.500 105.052 M37.987 110.625 C 38.480 111.198,38.917 111.667,38.957 111.667 C 39.067 111.667,37.723 110.086,37.383 109.816 C 37.222 109.688,37.493 110.052,37.987 110.625 M44.833 120.333 C 45.020 120.700,45.211 121.000,45.257 121.000 C 45.303 121.000,45.187 120.700,45.000 120.333 C 44.813 119.967,44.622 119.667,44.577 119.667 C 44.531 119.667,44.646 119.967,44.833 120.333 M69.003 130.097 C 69.004 130.273,69.081 130.529,69.174 130.667 C 69.298 130.849,69.313 130.782,69.232 130.417 C 69.095 129.804,68.999 129.671,69.003 130.097 M49.762 131.333 C 49.824 131.563,49.943 131.862,50.028 132.000 C 50.135 132.174,50.149 132.123,50.071 131.833 C 50.010 131.604,49.890 131.304,49.805 131.167 C 49.698 130.993,49.685 131.044,49.762 131.333 M69.362 131.500 C 69.370 131.933,69.633 132.644,69.638 132.250 C 69.641 132.067,69.579 131.767,69.500 131.583 C 69.412 131.379,69.359 131.347,69.362 131.500 M70.370 136.250 C 70.371 136.433,70.430 136.808,70.500 137.083 C 70.614 137.532,70.628 137.541,70.630 137.167 C 70.632 136.938,70.573 136.563,70.500 136.333 C 70.395 136.007,70.367 135.989,70.370 136.250 M51.268 136.583 C 51.405 137.196,51.501 137.329,51.497 136.903 C 51.496 136.727,51.419 136.471,51.326 136.333 C 51.202 136.151,51.187 136.218,51.268 136.583 M51.774 138.833 C 51.906 139.552,52.001 139.688,51.997 139.153 C 51.996 138.931,51.921 138.637,51.831 138.500 C 51.716 138.324,51.699 138.423,51.774 138.833 M70.863 139.250 C 70.857 139.433,70.915 139.883,70.990 140.250 C 71.106 140.811,71.128 140.837,71.128 140.417 C 71.127 139.833,70.878 138.737,70.863 139.250 M52.281 141.500 C 52.335 141.912,52.407 142.281,52.440 142.319 C 52.565 142.464,52.470 141.402,52.329 141.083 C 52.230 140.861,52.214 140.999,52.281 141.500 M71.375 143.583 C 71.377 143.950,71.411 144.080,71.451 143.873 C 71.491 143.666,71.490 143.366,71.448 143.206 C 71.406 143.047,71.374 143.217,71.375 143.583 M71.542 144.917 C 71.544 145.283,71.578 145.414,71.618 145.206 C 71.658 144.999,71.656 144.699,71.615 144.540 C 71.573 144.380,71.540 144.550,71.542 144.917 M52.879 145.667 C 52.879 146.079,52.911 146.248,52.951 146.042 C 52.991 145.835,52.991 145.498,52.951 145.292 C 52.911 145.085,52.879 145.254,52.879 145.667 M71.717 147.667 C 71.717 148.171,71.748 148.377,71.786 148.125 C 71.824 147.873,71.824 147.460,71.786 147.208 C 71.748 146.956,71.717 147.162,71.717 147.667 M53.042 147.583 C 53.044 147.950,53.078 148.080,53.118 147.873 C 53.158 147.666,53.156 147.366,53.115 147.206 C 53.073 147.047,53.040 147.217,53.042 147.583 M53.217 151.500 C 53.217 152.004,53.248 152.210,53.286 151.958 C 53.324 151.706,53.324 151.294,53.286 151.042 C 53.248 150.790,53.217 150.996,53.217 151.500 M71.883 151.500 C 71.883 152.004,71.915 152.210,71.953 151.958 C 71.991 151.706,71.991 151.294,71.953 151.042 C 71.915 150.790,71.883 150.996,71.883 151.500 " stroke="none" fill="#bca49c" fill-rule="evenodd"></path></g></svg>