<svg id="svg" version="1.1" xmlns="http://www.w3.org/2000/svg" xmlns:xlink="http://www.w3.org/1999/xlink" width="400" height="151.93798449612402" viewBox="0, 0, 400,151.93798449612402"><g id="svgg"><path id="path0" d="M109.901 0.542 C 109.961 0.840,110.118 1.796,110.249 2.667 C 110.603 5.016,111.763 9.197,112.583 11.083 C 116.800 20.784,122.671 27.666,131.460 33.213 C 138.800 37.844,146.417 40.259,156.048 41.006 C 161.415 41.422,170.180 40.144,174.417 38.327 C 174.600 38.249,175.350 37.941,176.083 37.643 C 179.483 36.265,183.695 33.755,186.310 31.550 C 191.368 27.285,194.523 22.968,197.247 16.583 C 197.728 15.455,198.563 12.568,198.987 10.563 C 199.595 7.695,199.893 1.078,199.446 0.375 C 199.343 0.213,197.637 0.167,191.840 0.167 L 184.365 0.167 184.355 2.512 C 184.343 4.952,184.307 5.319,183.887 7.250 C 182.109 15.413,176.038 22.224,167.917 25.165 C 167.092 25.464,166.267 25.773,166.083 25.853 C 165.784 25.984,164.527 26.277,162.544 26.679 C 160.351 27.124,154.265 27.160,152.083 26.741 C 137.806 23.999,126.939 13.760,125.308 1.515 L 125.107 0.000 117.449 0.000 L 109.792 -0.000 109.901 0.542 M0.500 81.725 L 0.500 92.167 1.478 92.167 C 6.365 92.167,12.819 93.544,18.417 95.783 C 27.809 99.538,36.814 107.141,42.854 116.417 C 44.759 119.342,48.333 126.204,48.333 126.935 C 48.333 126.989,48.443 127.269,48.577 127.558 C 49.898 130.403,51.956 137.984,52.408 141.667 C 52.458 142.079,52.610 143.204,52.745 144.167 C 52.880 145.129,53.042 147.248,53.104 148.875 L 53.218 151.833 62.468 151.833 L 71.718 151.833 71.601 148.458 C 71.360 141.454,70.123 133.388,68.413 127.667 C 68.290 127.254,67.988 126.242,67.741 125.417 C 67.340 124.074,66.137 120.591,65.699 119.500 C 65.607 119.271,65.366 118.671,65.164 118.167 C 59.325 103.608,48.577 90.224,36.333 82.264 C 35.646 81.817,34.880 81.312,34.632 81.142 C 34.383 80.972,34.141 80.833,34.093 80.833 C 34.046 80.833,33.611 80.581,33.128 80.272 C 29.852 78.176,23.865 75.584,18.250 73.831 C 14.197 72.566,7.938 71.529,3.458 71.381 L 0.500 71.283 0.500 81.725 " stroke="none" fill="#3c4c33" fill-rule="evenodd"></path><path id="path1" d="M0.000 75.916 L 0.000 151.833 26.519 151.833 L 53.037 151.833 52.925 149.458 C 52.222 134.688,47.738 122.405,39.098 111.583 C 37.742 109.885,33.569 105.600,32.110 104.409 C 31.667 104.046,31.179 103.633,31.027 103.490 C 29.155 101.732,20.320 96.374,19.217 96.328 C 19.143 96.325,18.783 96.177,18.417 96.000 C 18.050 95.823,17.686 95.675,17.609 95.672 C 17.531 95.669,17.231 95.557,16.942 95.424 C 16.101 95.035,13.543 94.233,11.917 93.847 C 11.092 93.652,10.152 93.421,9.829 93.334 C 8.669 93.021,4.569 92.504,2.388 92.394 L 0.164 92.283 0.207 81.683 L 0.250 71.083 2.583 71.128 C 4.876 71.171,5.753 71.252,9.417 71.758 C 12.081 72.126,15.692 72.864,17.465 73.403 C 25.148 75.738,30.108 78.030,36.750 82.314 C 40.683 84.851,46.472 89.808,49.715 93.417 C 50.539 94.333,51.449 95.346,51.738 95.667 C 53.817 97.980,57.023 102.406,59.286 106.086 C 60.809 108.562,64.500 115.650,64.500 116.098 C 64.500 116.146,64.640 116.500,64.812 116.884 C 64.983 117.269,65.326 118.108,65.573 118.750 C 65.821 119.392,66.122 120.142,66.243 120.417 C 66.543 121.100,67.705 124.587,68.242 126.417 C 68.484 127.242,68.751 128.142,68.836 128.417 C 69.052 129.120,69.691 131.943,70.306 134.917 C 70.628 136.477,71.156 140.079,71.332 141.917 C 71.428 142.925,71.579 144.425,71.667 145.250 C 71.755 146.075,71.829 147.894,71.830 149.292 L 71.833 151.833 235.917 151.833 L 400.000 151.833 400.000 75.917 L 400.000 0.000 299.875 -0.000 L 199.750 -0.000 199.799 2.931 C 199.901 9.014,198.810 13.941,196.143 19.441 C 190.354 31.380,177.703 39.699,163.333 41.016 C 161.090 41.221,153.391 41.116,151.917 40.859 C 151.458 40.780,150.371 40.588,149.500 40.434 C 133.530 37.605,118.970 26.449,113.001 12.469 C 112.715 11.798,112.410 11.100,112.324 10.917 C 111.458 9.075,110.081 3.740,109.870 1.404 L 109.750 0.083 54.875 0.041 L 0.000 -0.001 0.000 75.916 M125.530 1.792 C 126.224 5.707,128.204 10.490,130.203 13.083 C 135.406 19.830,142.428 24.579,149.167 25.906 C 149.487 25.969,149.938 26.090,150.167 26.175 C 150.771 26.399,155.872 27.000,157.167 27.000 C 160.475 27.000,166.003 25.906,168.667 24.724 C 178.378 20.414,183.820 12.779,184.120 3.042 L 184.214 0.000 154.713 0.000 L 125.212 0.000 125.530 1.792 " stroke="none" fill="#fbfbfb" fill-rule="evenodd"></path><path id="path2" d="M195.201 0.123 C 195.816 0.155,196.866 0.156,197.534 0.124 C 198.203 0.092,197.700 0.066,196.417 0.066 C 195.133 0.065,194.586 0.091,195.201 0.123 M53.039 150.167 C 53.039 150.487,53.073 150.619,53.115 150.458 C 53.157 150.298,53.157 150.035,53.115 149.875 C 53.073 149.715,53.039 149.846,53.039 150.167 " stroke="none" fill="#9ca49a" fill-rule="evenodd"></path><path id="path3" d="M184.231 2.083 C 184.232 3.275,184.258 3.741,184.290 3.118 C 184.323 2.496,184.322 1.521,184.290 0.951 C 184.257 0.382,184.231 0.892,184.231 2.083 M199.157 0.093 C 199.530 0.164,199.663 0.293,199.714 0.635 C 199.775 1.040,199.780 1.034,199.766 0.583 C 199.752 0.143,199.686 0.078,199.208 0.042 C 198.692 0.002,198.690 0.004,199.157 0.093 M199.705 6.167 C 199.705 6.487,199.740 6.619,199.782 6.458 C 199.823 6.298,199.823 6.035,199.782 5.875 C 199.740 5.715,199.705 5.846,199.705 6.167 M199.539 7.833 C 199.539 8.154,199.573 8.285,199.615 8.125 C 199.657 7.965,199.657 7.702,199.615 7.542 C 199.573 7.381,199.539 7.513,199.539 7.833 M132.500 16.083 C 132.811 16.404,133.103 16.667,133.149 16.667 C 133.195 16.667,132.978 16.404,132.667 16.083 C 132.356 15.762,132.064 15.500,132.018 15.500 C 131.972 15.500,132.189 15.762,132.500 16.083 M177.162 19.125 L 176.083 20.250 177.208 19.171 C 178.253 18.170,178.410 18.000,178.287 18.000 C 178.261 18.000,177.755 18.506,177.162 19.125 M121.250 25.000 C 121.608 25.367,121.938 25.667,121.984 25.667 C 122.030 25.667,121.775 25.367,121.417 25.000 C 121.059 24.633,120.728 24.333,120.682 24.333 C 120.637 24.333,120.892 24.633,121.250 25.000 M153.208 26.782 C 153.369 26.823,153.631 26.823,153.792 26.782 C 153.952 26.740,153.821 26.705,153.500 26.705 C 153.179 26.705,153.048 26.740,153.208 26.782 M160.542 26.782 C 160.702 26.823,160.965 26.823,161.125 26.782 C 161.285 26.740,161.154 26.705,160.833 26.705 C 160.512 26.705,160.381 26.740,160.542 26.782 M154.708 26.948 C 154.869 26.990,155.131 26.990,155.292 26.948 C 155.452 26.906,155.321 26.872,155.000 26.872 C 154.679 26.872,154.548 26.906,154.708 26.948 M159.042 26.948 C 159.202 26.990,159.465 26.990,159.625 26.948 C 159.785 26.906,159.654 26.872,159.333 26.872 C 159.012 26.872,158.881 26.906,159.042 26.948 M123.833 27.583 C 124.144 27.904,124.436 28.167,124.482 28.167 C 124.528 28.167,124.311 27.904,124.000 27.583 C 123.689 27.262,123.397 27.000,123.351 27.000 C 123.305 27.000,123.522 27.262,123.833 27.583 M189.158 29.125 L 188.583 29.750 189.208 29.176 C 189.790 28.641,189.910 28.500,189.783 28.500 C 189.755 28.500,189.474 28.781,189.158 29.125 M147.250 40.000 C 147.433 40.079,147.733 40.141,147.917 40.138 C 148.185 40.134,148.168 40.107,147.833 40.000 C 147.263 39.817,146.825 39.817,147.250 40.000 M165.042 40.782 C 165.202 40.823,165.465 40.823,165.625 40.782 C 165.785 40.740,165.654 40.705,165.333 40.705 C 165.012 40.705,164.881 40.740,165.042 40.782 M0.243 71.208 C 0.199 71.323,0.184 76.142,0.208 81.917 L 0.253 92.417 0.293 81.799 L 0.333 71.182 1.458 71.124 L 2.583 71.065 1.453 71.033 C 0.677 71.010,0.298 71.065,0.243 71.208 M4.125 71.287 C 4.423 71.324,4.910 71.324,5.208 71.287 C 5.506 71.250,5.263 71.220,4.667 71.220 C 4.071 71.220,3.827 71.250,4.125 71.287 M44.667 88.583 C 44.978 88.904,45.270 89.167,45.315 89.167 C 45.361 89.167,45.144 88.904,44.833 88.583 C 44.522 88.263,44.230 88.000,44.185 88.000 C 44.139 88.000,44.356 88.263,44.667 88.583 M47.583 91.333 C 48.680 92.433,49.616 93.333,49.661 93.333 C 49.707 93.333,48.847 92.433,47.750 91.333 C 46.653 90.233,45.718 89.333,45.672 89.333 C 45.626 89.333,46.486 90.233,47.583 91.333 M3.208 92.448 C 3.369 92.490,3.631 92.490,3.792 92.448 C 3.952 92.406,3.821 92.372,3.500 92.372 C 3.179 92.372,3.048 92.406,3.208 92.448 M50.000 93.885 C 50.000 93.914,50.244 94.158,50.542 94.427 L 51.083 94.917 50.594 94.375 C 50.138 93.870,50.000 93.757,50.000 93.885 M34.000 106.046 C 34.000 106.071,34.581 106.652,35.292 107.338 L 36.583 108.583 35.338 107.292 C 34.180 106.092,34.000 105.924,34.000 106.046 M71.548 145.083 C 71.549 145.542,71.581 145.709,71.620 145.456 C 71.658 145.203,71.657 144.828,71.617 144.623 C 71.578 144.418,71.546 144.625,71.548 145.083 M52.705 145.833 C 52.705 146.154,52.740 146.285,52.782 146.125 C 52.823 145.965,52.823 145.702,52.782 145.542 C 52.740 145.381,52.705 145.512,52.705 145.833 M71.721 147.250 C 71.722 147.892,71.752 148.134,71.788 147.788 C 71.824 147.442,71.824 146.917,71.787 146.621 C 71.750 146.325,71.721 146.608,71.721 147.250 M52.890 148.250 C 52.891 148.983,52.920 149.263,52.956 148.871 C 52.991 148.479,52.990 147.879,52.954 147.537 C 52.919 147.196,52.890 147.517,52.890 148.250 M53.042 151.250 C 53.044 151.617,53.078 151.747,53.118 151.540 C 53.158 151.332,53.156 151.032,53.115 150.873 C 53.073 150.714,53.040 150.883,53.042 151.250 " stroke="none" fill="#b5bcb1" fill-rule="evenodd"></path><path id="path4" d="M186.802 0.125 C 188.206 0.153,190.456 0.153,191.802 0.125 C 193.148 0.097,192.000 0.074,189.250 0.074 C 186.500 0.074,185.398 0.097,186.802 0.125 M199.728 3.333 C 199.728 4.296,199.756 4.690,199.790 4.208 C 199.823 3.727,199.823 2.940,199.790 2.458 C 199.756 1.977,199.728 2.371,199.728 3.333 M199.542 6.417 C 199.544 6.783,199.578 6.914,199.618 6.706 C 199.658 6.499,199.656 6.199,199.615 6.040 C 199.573 5.880,199.540 6.050,199.542 6.417 M133.583 17.333 C 134.405 18.158,135.114 18.833,135.160 18.833 C 135.206 18.833,134.571 18.158,133.750 17.333 C 132.929 16.508,132.219 15.833,132.174 15.833 C 132.128 15.833,132.762 16.508,133.583 17.333 M177.245 19.208 L 176.250 20.250 177.292 19.255 C 177.865 18.708,178.333 18.239,178.333 18.214 C 178.333 18.090,178.169 18.241,177.245 19.208 M156.877 27.120 C 157.131 27.158,157.506 27.157,157.711 27.117 C 157.916 27.078,157.708 27.046,157.250 27.048 C 156.792 27.049,156.624 27.081,156.877 27.120 M124.333 27.885 C 124.333 27.914,124.577 28.158,124.875 28.427 L 125.417 28.917 124.927 28.375 C 124.471 27.870,124.333 27.757,124.333 27.885 M188.409 29.708 L 187.750 30.417 188.458 29.758 C 188.848 29.395,189.167 29.077,189.167 29.050 C 189.167 28.923,189.022 29.050,188.409 29.708 M153.877 40.953 C 154.131 40.991,154.506 40.990,154.711 40.951 C 154.916 40.911,154.708 40.880,154.250 40.881 C 153.792 40.882,153.624 40.915,153.877 40.953 M162.458 40.951 C 162.665 40.991,163.002 40.991,163.208 40.951 C 163.415 40.911,163.246 40.879,162.833 40.879 C 162.421 40.879,162.252 40.911,162.458 40.951 M155.875 41.119 C 156.127 41.158,156.540 41.158,156.792 41.119 C 157.044 41.081,156.837 41.050,156.333 41.050 C 155.829 41.050,155.623 41.081,155.875 41.119 M160.708 41.115 C 160.869 41.157,161.131 41.157,161.292 41.115 C 161.452 41.073,161.321 41.039,161.000 41.039 C 160.679 41.039,160.548 41.073,160.708 41.115 M0.374 81.708 L 0.417 92.250 1.750 92.260 L 3.083 92.270 1.792 92.212 L 0.500 92.153 0.500 81.750 L 0.500 71.347 1.875 71.291 L 3.250 71.235 1.790 71.201 L 0.331 71.167 0.374 81.708 M47.500 91.417 C 48.643 92.563,49.616 93.500,49.662 93.500 C 49.707 93.500,48.810 92.563,47.667 91.417 C 46.524 90.271,45.551 89.333,45.505 89.333 C 45.459 89.333,46.357 90.271,47.500 91.417 M51.333 95.552 C 51.333 95.581,51.577 95.825,51.875 96.094 L 52.417 96.583 51.927 96.042 C 51.471 95.537,51.333 95.423,51.333 95.552 M35.250 107.167 C 35.794 107.717,36.277 108.167,36.323 108.167 C 36.369 108.167,35.961 107.717,35.417 107.167 C 34.872 106.617,34.390 106.167,34.344 106.167 C 34.298 106.167,34.706 106.617,35.250 107.167 M37.500 109.583 C 37.811 109.904,38.103 110.167,38.149 110.167 C 38.195 110.167,37.978 109.904,37.667 109.583 C 37.356 109.263,37.064 109.000,37.018 109.000 C 36.972 109.000,37.189 109.263,37.500 109.583 M71.039 141.000 C 71.039 141.321,71.073 141.452,71.115 141.292 C 71.157 141.131,71.157 140.869,71.115 140.708 C 71.073 140.548,71.039 140.679,71.039 141.000 M52.705 144.667 C 52.705 144.987,52.740 145.119,52.782 144.958 C 52.823 144.798,52.823 144.535,52.782 144.375 C 52.740 144.215,52.705 144.346,52.705 144.667 M52.875 146.083 C 52.877 146.450,52.911 146.580,52.951 146.373 C 52.991 146.166,52.990 145.866,52.948 145.706 C 52.906 145.547,52.874 145.717,52.875 146.083 M71.548 146.917 C 71.549 147.375,71.581 147.543,71.620 147.289 C 71.658 147.036,71.657 146.661,71.617 146.456 C 71.578 146.251,71.546 146.458,71.548 146.917 M53.048 148.917 C 53.049 149.375,53.081 149.543,53.120 149.289 C 53.158 149.036,53.157 148.661,53.117 148.456 C 53.078 148.251,53.046 148.458,53.048 148.917 M71.725 150.500 C 71.725 151.279,71.754 151.598,71.789 151.208 C 71.824 150.819,71.824 150.181,71.789 149.792 C 71.754 149.402,71.725 149.721,71.725 150.500 " stroke="none" fill="#949c8c" fill-rule="evenodd"></path></g></svg>