<svg id="svg" version="1.1" xmlns="http://www.w3.org/2000/svg" xmlns:xlink="http://www.w3.org/1999/xlink" width="400" height="152.40506329113924" viewBox="0, 0, 400,152.40506329113924"><g id="svgg"><path id="path0" d="M0.000 35.725 L 0.000 71.450 1.625 71.553 C 8.424 71.984,11.267 72.420,16.667 73.861 C 18.732 74.413,21.262 75.220,22.109 75.599 C 22.397 75.728,22.749 75.833,22.890 75.833 C 23.032 75.833,23.188 75.900,23.239 75.982 C 23.289 76.063,23.520 76.177,23.753 76.236 C 24.126 76.329,24.733 76.583,26.583 77.417 C 27.641 77.894,30.444 79.307,31.000 79.643 C 31.321 79.837,31.739 80.065,31.929 80.149 C 32.321 80.323,35.322 82.167,36.583 83.009 C 37.570 83.667,41.605 86.679,42.083 87.114 C 42.267 87.280,43.129 88.028,44.000 88.775 C 51.181 94.932,57.929 103.880,62.520 113.333 C 63.916 116.207,63.932 116.241,64.503 117.583 C 64.698 118.042,64.955 118.642,65.075 118.917 C 65.195 119.192,65.534 120.092,65.830 120.917 C 66.126 121.742,66.429 122.567,66.505 122.750 C 69.015 128.866,71.160 140.423,71.447 149.375 L 71.541 152.333 235.771 152.333 L 400.000 152.333 400.000 76.167 L 400.000 0.000 262.583 0.000 L 125.167 0.000 125.177 0.875 C 125.210 3.856,127.106 9.121,129.381 12.554 C 131.975 16.468,136.151 20.456,139.910 22.611 C 140.390 22.886,144.015 24.670,144.417 24.828 C 144.600 24.901,145.050 25.079,145.417 25.224 C 158.500 30.397,174.291 25.742,180.682 14.829 C 183.061 10.767,183.830 8.056,183.989 3.167 L 184.083 0.250 191.750 0.310 C 195.967 0.343,199.488 0.437,199.574 0.518 C 200.278 1.176,199.559 9.821,198.502 13.417 C 195.150 24.818,187.649 33.167,176.250 38.183 C 174.780 38.831,172.122 39.720,170.333 40.163 C 169.554 40.356,168.767 40.555,168.583 40.605 C 168.124 40.732,165.858 41.128,164.250 41.362 C 162.443 41.625,154.329 41.627,152.417 41.364 C 149.969 41.027,147.190 40.514,146.000 40.179 C 145.679 40.088,144.854 39.856,144.167 39.662 C 143.479 39.468,142.767 39.245,142.583 39.167 C 142.400 39.088,141.762 38.866,141.167 38.674 C 140.571 38.481,139.933 38.259,139.750 38.179 C 139.567 38.099,139.021 37.874,138.538 37.678 C 136.839 36.988,133.663 35.359,131.529 34.083 C 126.987 31.368,122.150 27.007,118.035 21.917 C 117.524 21.285,114.894 17.248,114.506 16.500 C 112.695 13.011,112.105 11.648,111.116 8.667 C 110.464 6.702,109.726 3.292,109.412 0.792 L 109.313 0.000 54.656 0.000 L 0.000 0.000 0.000 35.725 M-0.000 122.641 L 0.000 152.333 26.358 152.333 L 52.717 152.333 52.614 150.625 C 52.425 147.497,52.163 144.427,52.006 143.500 C 51.920 142.996,51.724 141.833,51.569 140.917 C 51.020 137.651,49.418 131.588,48.663 129.917 C 48.580 129.733,48.239 128.871,47.905 128.000 C 43.811 117.334,36.136 107.619,26.829 101.319 C 24.367 99.653,19.439 97.009,18.000 96.583 C 17.771 96.515,17.508 96.406,17.417 96.340 C 17.325 96.275,16.762 96.051,16.167 95.844 C 15.571 95.637,14.933 95.405,14.750 95.330 C 14.428 95.197,13.318 94.874,11.583 94.410 C 8.841 93.676,5.519 93.176,2.586 93.055 L -0.000 92.948 -0.000 122.641 " stroke="none" fill="#fbfbfb" fill-rule="evenodd"></path><path id="path1" d="M109.667 0.648 C 109.667 2.788,111.388 9.636,112.426 11.626 C 112.557 11.877,112.665 12.140,112.666 12.209 C 112.666 12.278,113.009 13.052,113.427 13.929 C 117.461 22.391,124.018 29.346,133.086 34.781 C 133.715 35.159,137.421 36.968,138.500 37.424 C 147.864 41.388,158.070 42.497,167.583 40.586 C 169.538 40.194,170.376 40.005,170.908 39.838 C 172.496 39.341,174.653 38.603,175.109 38.400 C 175.397 38.272,175.684 38.167,175.746 38.167 C 175.996 38.167,179.845 36.232,181.167 35.442 C 193.218 28.241,200.306 15.384,199.512 2.167 L 199.417 0.583 191.900 0.540 L 184.384 0.497 184.283 3.040 C 183.873 13.421,178.434 20.965,168.083 25.513 C 163.519 27.518,155.802 28.053,150.000 26.766 C 147.905 26.302,146.429 25.883,145.583 25.513 C 145.400 25.433,144.837 25.201,144.333 24.998 C 133.815 20.752,126.425 11.636,124.883 1.000 L 124.750 0.083 117.208 0.040 L 109.667 -0.003 109.667 0.648 M0.000 82.227 L 0.000 92.621 0.773 92.727 C 1.199 92.786,2.080 92.834,2.732 92.835 C 4.373 92.836,7.253 93.221,10.083 93.815 C 12.179 94.256,16.704 95.709,18.417 96.491 C 19.676 97.066,23.340 98.909,23.750 99.173 C 24.025 99.350,24.427 99.572,24.642 99.667 C 29.326 101.715,37.953 110.134,42.575 117.166 C 44.095 119.480,47.667 126.200,47.667 126.748 C 47.667 126.813,47.769 127.103,47.894 127.391 C 48.019 127.680,48.253 128.254,48.414 128.667 C 48.575 129.079,48.772 129.567,48.852 129.750 C 49.125 130.374,50.167 133.685,50.167 133.928 C 50.167 134.062,50.239 134.301,50.327 134.461 C 50.415 134.620,50.570 135.125,50.671 135.583 C 50.773 136.042,50.969 136.904,51.107 137.500 C 52.046 141.561,52.495 145.043,52.766 150.375 L 52.866 152.333 62.100 152.333 L 71.333 152.333 71.329 150.792 C 71.316 146.792,70.380 138.569,69.435 134.167 C 69.307 133.571,69.116 132.671,69.011 132.167 C 68.906 131.662,68.706 130.837,68.567 130.333 C 68.428 129.829,68.202 129.004,68.064 128.500 C 67.458 126.277,67.300 125.730,67.171 125.417 C 67.095 125.233,66.872 124.558,66.673 123.917 C 66.475 123.275,66.251 122.600,66.176 122.417 C 66.005 121.998,65.649 121.081,65.076 119.583 C 64.831 118.942,64.484 118.079,64.306 117.667 C 64.128 117.254,63.919 116.767,63.842 116.583 C 62.919 114.388,60.128 109.034,58.778 106.870 C 58.304 106.112,57.841 105.362,57.747 105.204 C 57.321 104.480,55.092 101.268,54.542 100.583 C 54.469 100.492,54.039 99.929,53.588 99.333 C 47.266 90.988,38.132 83.366,29.000 78.816 C 26.218 77.430,21.620 75.500,21.099 75.500 C 20.964 75.500,20.812 75.434,20.762 75.352 C 20.711 75.271,20.398 75.153,20.065 75.091 C 19.732 75.028,19.337 74.912,19.188 74.832 C 19.039 74.752,18.504 74.574,18.000 74.436 C 17.496 74.298,16.671 74.071,16.167 73.931 C 12.021 72.777,5.555 71.858,1.458 71.840 L 0.000 71.833 0.000 82.227 " stroke="none" fill="#203855" fill-rule="evenodd"></path><path id="path2" d="M124.960 0.625 C 125.062 1.697,125.127 1.784,125.147 0.875 C 125.158 0.394,125.107 0.000,125.033 0.000 C 124.960 0.000,124.927 0.281,124.960 0.625 M184.078 0.371 C 184.029 0.498,184.013 1.535,184.042 2.676 L 184.095 4.750 184.131 2.515 L 184.167 0.280 189.042 0.390 C 191.723 0.450,195.168 0.500,196.697 0.500 C 199.447 0.500,199.478 0.504,199.549 0.875 L 199.621 1.250 199.644 0.870 C 199.676 0.341,200.053 0.370,191.708 0.249 C 185.359 0.157,184.153 0.176,184.078 0.371 M109.542 1.583 C 109.544 1.950,109.578 2.080,109.618 1.873 C 109.658 1.666,109.656 1.366,109.615 1.206 C 109.573 1.047,109.540 1.217,109.542 1.583 M199.733 3.667 C 199.733 4.996,199.759 5.540,199.790 4.875 C 199.822 4.210,199.822 3.123,199.790 2.458 C 199.759 1.794,199.733 2.337,199.733 3.667 M125.435 3.583 C 125.572 4.196,125.668 4.329,125.664 3.903 C 125.663 3.727,125.585 3.471,125.492 3.333 C 125.369 3.151,125.353 3.218,125.435 3.583 M199.539 6.667 C 199.539 6.987,199.573 7.119,199.615 6.958 C 199.657 6.798,199.657 6.535,199.615 6.375 C 199.573 6.215,199.539 6.346,199.539 6.667 M110.857 7.833 C 110.857 7.971,110.921 8.233,111.000 8.417 C 111.090 8.627,111.143 8.658,111.143 8.500 C 111.143 8.362,111.079 8.100,111.000 7.917 C 110.910 7.707,110.857 7.676,110.857 7.833 M198.686 12.195 C 198.675 12.348,198.624 12.610,198.571 12.778 C 198.480 13.067,198.485 13.068,198.665 12.786 C 198.770 12.623,198.822 12.361,198.781 12.203 C 198.713 11.945,198.703 11.944,198.686 12.195 M133.250 17.500 C 133.887 18.142,134.445 18.667,134.491 18.667 C 134.537 18.667,134.053 18.142,133.417 17.500 C 132.780 16.858,132.221 16.333,132.176 16.333 C 132.130 16.333,132.613 16.858,133.250 17.500 M120.917 25.333 C 121.368 25.792,121.775 26.167,121.821 26.167 C 121.867 26.167,121.535 25.792,121.083 25.333 C 120.632 24.875,120.225 24.500,120.179 24.500 C 120.133 24.500,120.465 24.875,120.917 25.333 M191.833 26.333 C 191.543 26.700,191.343 27.000,191.389 27.000 C 191.434 27.000,191.710 26.700,192.000 26.333 C 192.290 25.967,192.491 25.667,192.445 25.667 C 192.399 25.667,192.124 25.967,191.833 26.333 M163.417 26.667 C 163.207 26.757,163.176 26.810,163.333 26.810 C 163.471 26.810,163.733 26.745,163.917 26.667 C 164.127 26.576,164.158 26.523,164.000 26.523 C 163.862 26.523,163.600 26.588,163.417 26.667 M152.542 27.115 C 152.702 27.157,152.965 27.157,153.125 27.115 C 153.285 27.073,153.154 27.039,152.833 27.039 C 152.512 27.039,152.381 27.073,152.542 27.115 M123.583 28.000 C 123.941 28.367,124.272 28.667,124.318 28.667 C 124.363 28.667,124.108 28.367,123.750 28.000 C 123.392 27.633,123.062 27.333,123.016 27.333 C 122.970 27.333,123.225 27.633,123.583 28.000 M190.073 28.375 L 189.583 28.917 190.125 28.427 C 190.630 27.971,190.743 27.833,190.615 27.833 C 190.586 27.833,190.342 28.077,190.073 28.375 M187.409 31.042 L 186.750 31.750 187.458 31.091 C 188.117 30.478,188.243 30.333,188.117 30.333 C 188.090 30.333,187.771 30.652,187.409 31.042 M139.667 38.096 C 139.667 38.209,140.532 38.523,140.615 38.441 C 140.653 38.403,140.455 38.292,140.175 38.195 C 139.895 38.097,139.667 38.053,139.667 38.096 M148.167 40.664 C 148.304 40.754,148.598 40.829,148.819 40.831 C 149.354 40.834,149.219 40.739,148.500 40.608 C 148.090 40.532,147.991 40.549,148.167 40.664 M167.750 40.667 C 167.289 40.784,167.282 40.795,167.667 40.811 C 167.896 40.821,168.196 40.756,168.333 40.667 C 168.617 40.483,168.470 40.483,167.750 40.667 M151.542 41.282 C 151.702 41.323,151.965 41.323,152.125 41.282 C 152.285 41.240,152.154 41.205,151.833 41.205 C 151.512 41.205,151.381 41.240,151.542 41.282 M164.542 41.282 C 164.702 41.323,164.965 41.323,165.125 41.282 C 165.285 41.240,165.154 41.205,164.833 41.205 C 164.512 41.205,164.381 41.240,164.542 41.282 M155.711 41.620 C 155.964 41.658,156.339 41.657,156.544 41.617 C 156.749 41.578,156.542 41.546,156.083 41.548 C 155.625 41.549,155.457 41.581,155.711 41.620 M160.292 41.618 C 160.498 41.657,160.835 41.657,161.042 41.618 C 161.248 41.578,161.079 41.545,160.667 41.545 C 160.254 41.545,160.085 41.578,160.292 41.618 M0.542 71.621 C 0.885 71.657,1.448 71.657,1.792 71.621 C 2.135 71.585,1.854 71.556,1.167 71.556 C 0.479 71.556,0.198 71.585,0.542 71.621 M3.294 71.785 C 3.501 71.824,3.801 71.823,3.960 71.781 C 4.120 71.739,3.950 71.707,3.583 71.709 C 3.217 71.711,3.086 71.745,3.294 71.785 M7.294 72.118 C 7.501 72.158,7.801 72.156,7.960 72.115 C 8.120 72.073,7.950 72.040,7.583 72.042 C 7.217 72.044,7.086 72.078,7.294 72.118 M12.750 73.000 C 12.933 73.079,13.233 73.141,13.417 73.138 C 13.685 73.134,13.668 73.107,13.333 73.000 C 12.763 72.817,12.325 72.817,12.750 73.000 M43.500 88.385 C 43.500 88.414,43.744 88.658,44.042 88.927 L 44.583 89.417 44.094 88.875 C 43.638 88.370,43.500 88.257,43.500 88.385 M45.583 90.333 C 46.128 90.883,46.610 91.333,46.656 91.333 C 46.702 91.333,46.294 90.883,45.750 90.333 C 45.206 89.783,44.723 89.333,44.677 89.333 C 44.631 89.333,45.039 89.783,45.583 90.333 M49.416 94.208 C 50.322 95.194,51.095 96.000,51.133 96.000 C 51.237 96.000,48.944 93.489,48.317 92.917 C 48.016 92.642,48.510 93.223,49.416 94.208 M0.797 92.956 C 1.282 92.990,2.032 92.990,2.464 92.956 C 2.896 92.921,2.500 92.894,1.583 92.894 C 0.667 92.895,0.313 92.923,0.797 92.956 M3.794 93.118 C 4.001 93.158,4.301 93.156,4.460 93.115 C 4.620 93.073,4.450 93.040,4.083 93.042 C 3.717 93.044,3.586 93.078,3.794 93.118 M6.514 93.395 C 6.552 93.429,6.958 93.501,7.417 93.554 C 7.979 93.618,8.114 93.604,7.833 93.508 C 7.417 93.367,6.383 93.278,6.514 93.395 M34.667 107.750 C 35.165 108.254,35.609 108.667,35.655 108.667 C 35.701 108.667,35.331 108.254,34.833 107.750 C 34.335 107.246,33.891 106.833,33.845 106.833 C 33.799 106.833,34.169 107.246,34.667 107.750 M36.667 109.885 C 36.667 109.914,36.910 110.158,37.208 110.427 L 37.750 110.917 37.260 110.375 C 36.804 109.870,36.667 109.757,36.667 109.885 M48.424 129.375 C 48.486 129.581,48.606 129.823,48.690 129.913 C 48.774 130.002,48.758 129.834,48.655 129.538 C 48.444 128.932,48.249 128.795,48.424 129.375 M51.367 139.750 C 51.367 139.933,51.427 140.271,51.500 140.500 C 51.606 140.830,51.633 140.847,51.633 140.583 C 51.633 140.400,51.573 140.063,51.500 139.833 C 51.394 139.503,51.367 139.486,51.367 139.750 M70.879 142.333 C 70.879 142.746,70.911 142.915,70.951 142.708 C 70.991 142.502,70.991 142.165,70.951 141.958 C 70.911 141.752,70.879 141.921,70.879 142.333 M71.039 143.833 C 71.039 144.154,71.073 144.285,71.115 144.125 C 71.157 143.965,71.157 143.702,71.115 143.542 C 71.073 143.381,71.039 143.512,71.039 143.833 M71.205 146.333 C 71.205 146.654,71.240 146.785,71.282 146.625 C 71.323 146.465,71.323 146.202,71.282 146.042 C 71.240 145.881,71.205 146.012,71.205 146.333 M52.379 147.333 C 52.379 147.746,52.411 147.915,52.451 147.708 C 52.491 147.502,52.491 147.165,52.451 146.958 C 52.411 146.752,52.379 146.921,52.379 147.333 M71.400 149.833 C 71.400 151.254,71.426 151.835,71.457 151.125 C 71.488 150.415,71.488 149.252,71.457 148.542 C 71.426 147.831,71.400 148.412,71.400 149.833 M52.548 149.083 C 52.549 149.542,52.581 149.709,52.620 149.456 C 52.658 149.203,52.657 148.828,52.617 148.623 C 52.578 148.418,52.546 148.625,52.548 149.083 " stroke="none" fill="#a1abb7" fill-rule="evenodd"></path><path id="path3" d="M186.625 0.457 C 187.381 0.488,188.619 0.488,189.375 0.457 C 190.131 0.426,189.512 0.401,188.000 0.401 C 186.487 0.401,185.869 0.426,186.625 0.457 M122.333 26.750 C 122.644 27.071,122.936 27.333,122.982 27.333 C 123.028 27.333,122.811 27.071,122.500 26.750 C 122.189 26.429,121.897 26.167,121.851 26.167 C 121.805 26.167,122.022 26.429,122.333 26.750 M156.463 27.456 C 156.855 27.491,157.455 27.490,157.796 27.454 C 158.137 27.419,157.817 27.390,157.083 27.390 C 156.350 27.391,156.071 27.420,156.463 27.456 M157.631 41.623 C 158.115 41.657,158.865 41.656,159.297 41.622 C 159.730 41.588,159.333 41.560,158.417 41.561 C 157.500 41.561,157.146 41.589,157.631 41.623 " stroke="none" fill="#8a9aa4" fill-rule="evenodd"></path><path id="path4" d="M184.239 0.552 C 184.193 0.673,184.179 1.592,184.209 2.594 L 184.263 4.417 184.298 2.469 L 184.333 0.521 184.875 0.454 L 185.417 0.387 184.870 0.360 C 184.551 0.344,184.288 0.425,184.239 0.552 M199.552 2.417 C 199.553 2.967,199.584 3.172,199.621 2.872 C 199.658 2.572,199.657 2.122,199.619 1.872 C 199.581 1.622,199.551 1.867,199.552 2.417 M199.550 5.167 C 199.550 5.671,199.581 5.877,199.619 5.625 C 199.658 5.373,199.658 4.960,199.619 4.708 C 199.581 4.456,199.550 4.662,199.550 5.167 M184.039 5.500 C 184.039 5.821,184.073 5.952,184.115 5.792 C 184.157 5.631,184.157 5.369,184.115 5.208 C 184.073 5.048,184.039 5.179,184.039 5.500 M199.258 8.258 C 199.194 8.683,199.176 9.065,199.217 9.106 C 199.259 9.148,199.345 8.834,199.409 8.409 C 199.473 7.984,199.491 7.602,199.449 7.560 C 199.408 7.519,199.321 7.832,199.258 8.258 M198.762 11.262 C 198.701 11.506,198.683 11.738,198.722 11.777 C 198.761 11.817,198.843 11.649,198.905 11.405 C 198.966 11.161,198.984 10.929,198.945 10.889 C 198.906 10.850,198.823 11.018,198.762 11.262 M133.333 17.750 C 133.924 18.346,134.445 18.833,134.490 18.833 C 134.536 18.833,134.091 18.346,133.500 17.750 C 132.909 17.154,132.389 16.667,132.343 16.667 C 132.297 16.667,132.743 17.154,133.333 17.750 M121.083 25.333 C 121.441 25.700,121.772 26.000,121.818 26.000 C 121.863 26.000,121.608 25.700,121.250 25.333 C 120.892 24.967,120.562 24.667,120.516 24.667 C 120.470 24.667,120.725 24.967,121.083 25.333 M145.500 25.429 C 145.500 25.542,146.366 25.856,146.448 25.774 C 146.486 25.736,146.288 25.625,146.009 25.528 C 145.729 25.430,145.500 25.386,145.500 25.429 M123.826 28.042 C 124.235 28.477,124.591 28.833,124.618 28.833 C 124.743 28.833,124.611 28.684,123.875 27.993 L 123.083 27.250 123.826 28.042 M154.960 27.451 C 155.168 27.491,155.468 27.490,155.627 27.448 C 155.786 27.406,155.617 27.374,155.250 27.375 C 154.883 27.377,154.753 27.411,154.960 27.451 M158.627 27.451 C 158.834 27.491,159.134 27.490,159.294 27.448 C 159.453 27.406,159.283 27.374,158.917 27.375 C 158.550 27.377,158.420 27.411,158.627 27.451 M190.240 28.042 L 189.750 28.583 190.292 28.094 C 190.797 27.638,190.910 27.500,190.781 27.500 C 190.752 27.500,190.509 27.744,190.240 28.042 M187.406 30.875 L 186.917 31.417 187.458 30.927 C 187.963 30.471,188.077 30.333,187.948 30.333 C 187.919 30.333,187.675 30.577,187.406 30.875 M185.000 32.854 C 184.419 33.363,184.419 33.364,184.953 33.008 C 185.248 32.812,185.534 32.580,185.588 32.492 C 185.749 32.232,185.616 32.314,185.000 32.854 M138.167 37.417 C 138.396 37.548,138.658 37.655,138.750 37.655 C 138.842 37.655,138.729 37.548,138.500 37.417 C 138.271 37.286,138.008 37.178,137.917 37.178 C 137.825 37.178,137.938 37.286,138.167 37.417 M152.875 41.282 C 153.035 41.323,153.298 41.323,153.458 41.282 C 153.619 41.240,153.487 41.205,153.167 41.205 C 152.846 41.205,152.715 41.240,152.875 41.282 M163.208 41.282 C 163.369 41.323,163.631 41.323,163.792 41.282 C 163.952 41.240,163.821 41.205,163.500 41.205 C 163.179 41.205,163.048 41.240,163.208 41.282 M0.629 71.789 C 1.021 71.824,1.621 71.824,1.963 71.788 C 2.304 71.752,1.983 71.723,1.250 71.724 C 0.517 71.724,0.237 71.754,0.629 71.789 M3.961 71.954 C 4.261 71.991,4.711 71.990,4.961 71.952 C 5.212 71.914,4.967 71.884,4.417 71.885 C 3.867 71.886,3.662 71.917,3.961 71.954 M8.708 72.448 C 8.869 72.490,9.131 72.490,9.292 72.448 C 9.452 72.406,9.321 72.372,9.000 72.372 C 8.679 72.372,8.548 72.406,8.708 72.448 M11.250 72.826 C 11.570 72.971,12.463 73.065,12.319 72.939 C 12.281 72.905,11.950 72.832,11.583 72.776 C 11.119 72.705,11.018 72.720,11.250 72.826 M36.833 83.401 C 36.833 83.446,37.171 83.716,37.583 84.000 C 37.996 84.284,38.333 84.479,38.333 84.433 C 38.333 84.387,37.996 84.117,37.583 83.833 C 37.171 83.550,36.833 83.355,36.833 83.401 M39.833 85.555 C 39.833 85.601,40.133 85.876,40.500 86.167 C 40.867 86.457,41.167 86.657,41.167 86.611 C 41.167 86.566,40.867 86.290,40.500 86.000 C 40.133 85.710,39.833 85.509,39.833 85.555 M42.167 87.385 C 42.167 87.414,42.410 87.658,42.708 87.927 L 43.250 88.417 42.760 87.875 C 42.304 87.370,42.167 87.257,42.167 87.385 M43.333 88.385 C 43.333 88.414,43.577 88.658,43.875 88.927 L 44.417 89.417 43.927 88.875 C 43.471 88.370,43.333 88.257,43.333 88.385 M44.518 89.542 C 44.559 89.565,45.115 90.071,45.754 90.667 L 46.917 91.750 45.838 90.625 C 45.245 90.006,44.689 89.500,44.602 89.500 C 44.515 89.500,44.478 89.519,44.518 89.542 M0.208 92.782 C 0.369 92.823,0.631 92.823,0.792 92.782 C 0.952 92.740,0.821 92.705,0.500 92.705 C 0.179 92.705,0.048 92.740,0.208 92.782 M48.667 93.583 C 49.165 94.087,49.609 94.500,49.655 94.500 C 49.701 94.500,49.331 94.087,48.833 93.583 C 48.335 93.079,47.891 92.667,47.845 92.667 C 47.799 92.667,48.169 93.079,48.667 93.583 M5.294 93.118 C 5.501 93.158,5.801 93.156,5.960 93.115 C 6.120 93.073,5.950 93.040,5.583 93.042 C 5.217 93.044,5.086 93.078,5.294 93.118 M8.347 93.559 C 8.385 93.592,8.679 93.667,9.000 93.726 C 9.410 93.801,9.509 93.784,9.333 93.669 C 9.107 93.521,8.182 93.418,8.347 93.559 M53.850 99.667 C 54.151 100.079,54.421 100.448,54.449 100.486 C 54.477 100.524,54.499 100.487,54.498 100.403 C 54.496 100.319,54.227 99.950,53.898 99.583 L 53.302 98.917 53.850 99.667 M27.500 101.561 C 27.500 101.606,27.725 101.804,28.000 102.000 C 28.275 102.196,28.500 102.319,28.500 102.273 C 28.500 102.227,28.275 102.029,28.000 101.833 C 27.725 101.638,27.500 101.515,27.500 101.561 M55.667 102.167 C 55.862 102.442,56.060 102.667,56.106 102.667 C 56.152 102.667,56.029 102.442,55.833 102.167 C 55.638 101.892,55.440 101.667,55.394 101.667 C 55.348 101.667,55.471 101.892,55.667 102.167 M31.833 104.885 C 31.833 104.914,32.077 105.158,32.375 105.427 L 32.917 105.917 32.427 105.375 C 31.971 104.870,31.833 104.757,31.833 104.885 M48.861 130.175 C 48.959 130.455,49.069 130.653,49.107 130.615 C 49.190 130.532,48.875 129.667,48.763 129.667 C 48.719 129.667,48.764 129.895,48.861 130.175 M69.443 134.250 C 69.499 134.617,69.572 134.948,69.605 134.986 C 69.732 135.129,69.637 134.237,69.492 133.917 C 69.387 133.684,69.372 133.785,69.443 134.250 M70.039 137.333 C 70.039 137.654,70.073 137.785,70.115 137.625 C 70.157 137.465,70.157 137.202,70.115 137.042 C 70.073 136.881,70.039 137.012,70.039 137.333 M70.542 140.583 C 70.544 140.950,70.578 141.080,70.618 140.873 C 70.658 140.666,70.656 140.366,70.615 140.206 C 70.573 140.047,70.540 140.217,70.542 140.583 M70.875 143.750 C 70.877 144.117,70.911 144.247,70.951 144.040 C 70.991 143.832,70.990 143.532,70.948 143.373 C 70.906 143.214,70.874 143.383,70.875 143.750 M71.052 145.417 C 71.053 145.967,71.084 146.172,71.121 145.872 C 71.158 145.572,71.157 145.122,71.119 144.872 C 71.081 144.622,71.051 144.867,71.052 145.417 M52.375 145.417 C 52.377 145.783,52.411 145.914,52.451 145.706 C 52.491 145.499,52.490 145.199,52.448 145.040 C 52.406 144.880,52.374 145.050,52.375 145.417 M52.539 147.333 C 52.539 147.654,52.573 147.785,52.615 147.625 C 52.657 147.465,52.657 147.202,52.615 147.042 C 52.573 146.881,52.539 147.012,52.539 147.333 M71.212 147.833 C 71.212 148.246,71.245 148.415,71.284 148.208 C 71.324 148.002,71.324 147.665,71.284 147.458 C 71.245 147.252,71.212 147.421,71.212 147.833 M52.718 151.417 C 52.719 151.967,52.750 152.172,52.787 151.872 C 52.825 151.572,52.824 151.122,52.786 150.872 C 52.748 150.622,52.717 150.867,52.718 151.417 " stroke="none" fill="#7c8c9c" fill-rule="evenodd"></path></g></svg>